<?xml version="1.0" encoding="UTF-8" standalone="no"?>
<!DOCTYPE svg PUBLIC "-//W3C//DTD SVG 1.1//EN" "http://www.w3.org/Graphics/SVG/1.1/DTD/svg11.dtd">
<svg width="100%" height="100%" viewBox="0 0 140 70" version="1.1" xmlns="http://www.w3.org/2000/svg" xmlns:xlink="http://www.w3.org/1999/xlink" xml:space="preserve" xmlns:serif="http://www.serif.com/" style="fill-rule:evenodd;clip-rule:evenodd;stroke-linejoin:round;stroke-miterlimit:2;">
    <g id="_140x70" serif:id="140x70" transform="matrix(0.279546,0,0,0.160354,0,0)">
        <rect x="0" y="0" width="500.812" height="436.535" style="fill:none;"/>
        <g transform="matrix(3.32429,0,0,5.79526,334.223,261.529)">
            <path d="M0,-14.93L-18.899,-14.93C-16.444,-17.681 -15.319,-21.052 -15.319,-25.279C-15.319,-27.772 -15.828,-30.201 -16.75,-32.425L0,-32.425L0,-14.93ZM0,17.496L-14.421,17.496C-12.985,14.708 -12.156,11.597 -12.156,8.427C-12.156,3.772 -13.782,-0.226 -16.773,-3.306L0,-3.306L0,17.496ZM-51.316,-2.667L-45.129,-2.667C-33.88,-2.667 -29.587,0.217 -29.587,7.573C-29.587,14.721 -34.01,17.496 -45.379,17.496L-51.316,17.496L-51.316,-2.667ZM-32.116,-23.783C-32.116,-20.158 -33.63,-17.067 -36.159,-15.466C-38.433,-14.077 -40.831,-13.653 -46.009,-13.653L-51.316,-13.653L-51.316,-33.388L-44.619,-33.388C-40.702,-33.388 -38.808,-33.065 -37.048,-32.208C-33.88,-30.611 -32.116,-27.623 -32.116,-23.783M14.653,-44.052L-65.084,-44.052C-67.353,-44.052 -67.733,-43.731 -67.733,-41.811L-67.733,26.881C-67.733,28.908 -67.483,29.122 -65.084,29.122L14.653,29.122C17.056,29.122 17.306,28.908 17.306,26.881L17.306,-41.811C17.306,-43.838 17.056,-44.052 14.653,-44.052" style="fill:white;fill-opacity:0.5;fill-rule:nonzero;"/>
        </g>
    </g>
</svg>
