<?xml version="1.0" encoding="UTF-8" standalone="no"?>
<!DOCTYPE svg PUBLIC "-//W3C//DTD SVG 1.1//EN" "http://www.w3.org/Graphics/SVG/1.1/DTD/svg11.dtd">
<svg width="100%" height="100%" viewBox="0 0 1280 1280" version="1.1" xmlns="http://www.w3.org/2000/svg" xmlns:xlink="http://www.w3.org/1999/xlink" xml:space="preserve" xmlns:serif="http://www.serif.com/" style="fill-rule:evenodd;clip-rule:evenodd;stroke-linejoin:round;stroke-miterlimit:2;">
    <g transform="matrix(1,0,0,1,51.3837,44.4677)">
        <g transform="matrix(4.49727,0,0,4.49727,28.183,8.94908)">
            <path d="M39.453,128.03C40.234,128.941 42.188,131.611 45.313,136.038C48.438,140.465 52.409,145.966 57.227,152.542C62.044,159.117 67.285,166.116 72.949,173.538C78.613,180.96 84.375,188.186 90.234,195.217C96.094,202.249 101.628,208.531 106.836,214.065C112.044,219.599 116.537,223.733 120.313,226.467C126.693,230.764 133.919,233.857 141.992,235.745C150.065,237.633 158.561,237.828 167.481,236.331C176.4,234.833 185.287,231.22 194.141,225.491C202.083,220.413 208.203,214.781 212.5,208.596C216.797,202.411 219.857,195.868 221.68,188.967C223.503,182.066 224.544,174.97 224.805,167.678C225.065,160.387 225.098,153.095 224.902,145.803C224.707,138.512 224.805,131.285 225.195,124.124C225.456,119.176 226.009,113.967 226.856,108.499C227.702,103.03 228.581,98.082 229.492,93.655C230.404,89.228 231.055,85.973 231.445,83.889C231.706,82.327 231.51,80.634 230.859,78.811C230.208,76.988 228.646,75.491 226.172,74.319C223.177,73.017 219.922,73.082 216.406,74.514C212.891,75.947 209.603,78.551 206.543,82.327C203.483,86.103 201.107,90.79 199.414,96.389C197.982,101.207 196.615,106.122 195.313,111.135C194.01,116.148 193.555,121.975 193.945,128.616C193.945,128.616 193.034,126.988 191.211,123.733C189.388,120.478 187.012,116.181 184.082,110.842C181.152,105.504 177.93,99.612 174.414,93.167C170.898,86.721 167.318,80.211 163.672,73.635C160.026,67.06 156.673,60.908 153.613,55.178C150.553,49.449 147.982,44.697 145.898,40.921C143.815,37.145 142.578,34.866 142.188,34.085C140.104,29.918 137.663,27.249 134.863,26.077C132.064,24.905 129.167,25.035 126.172,26.467C123.438,27.9 121.615,29.95 120.703,32.62C119.792,35.289 120.703,39.684 123.438,45.803C124.219,47.626 125.488,50.458 127.246,54.299C129.004,58.141 131.022,62.503 133.301,67.385C135.579,72.268 137.826,77.216 140.039,82.229C142.253,87.242 144.238,91.897 145.996,96.194C147.754,100.491 149.023,103.876 149.805,106.35C150.195,107.522 150.098,108.466 149.512,109.182C148.926,109.898 148.242,110.452 147.461,110.842C145.508,111.754 144.01,111.298 142.969,109.475C141.537,107.131 139.453,103.681 136.719,99.124C133.984,94.566 130.892,89.488 127.441,83.889C123.991,78.29 120.54,72.756 117.09,67.288C113.639,61.819 110.547,56.871 107.813,52.444C105.078,48.017 102.995,44.762 101.563,42.678C98.307,37.861 95.247,35.126 92.383,34.475C89.518,33.824 86.654,34.41 83.789,36.233C81.315,37.665 79.72,39.781 79.004,42.581C78.288,45.38 79.102,49.254 81.445,54.202C82.227,56.025 83.822,59.117 86.23,63.479C88.639,67.841 91.439,72.887 94.629,78.616C97.819,84.345 101.074,90.107 104.395,95.901C107.715,101.695 110.742,107.001 113.477,111.819C116.211,116.637 118.294,120.217 119.727,122.561C120.768,124.384 120.443,125.881 118.75,127.053C118.62,127.184 118.49,127.281 118.359,127.346C118.229,127.411 118.164,127.444 118.164,127.444C116.471,128.616 114.974,128.486 113.672,127.053L74.414,74.514C70.638,69.436 66.927,66.767 63.281,66.506C59.635,66.246 56.641,67.223 54.297,69.436C52.734,70.868 51.66,73.18 51.074,76.37C50.488,79.56 51.953,83.629 55.469,88.577C56.12,89.488 57.487,91.441 59.57,94.436C61.654,97.431 64.063,100.979 66.797,105.081C69.531,109.182 72.363,113.414 75.293,117.776C78.223,122.138 80.957,126.207 83.496,129.983C86.035,133.759 88.086,136.819 89.648,139.163C91.211,141.506 91.992,142.678 91.992,142.678C92.773,143.72 93.262,144.664 93.457,145.51C93.652,146.357 93.294,147.236 92.383,148.147C90.43,150.1 88.411,150.165 86.328,148.342C84.766,146.78 82.715,144.631 80.176,141.897C77.637,139.163 74.935,136.2 72.07,133.01C69.206,129.82 66.536,126.793 64.063,123.928C61.589,121.064 59.538,118.72 57.91,116.897C56.283,115.074 55.469,114.163 55.469,114.163C51.693,109.736 48.242,107.392 45.117,107.131C41.992,106.871 39.388,107.652 37.305,109.475C34.831,111.559 33.952,114.228 34.668,117.483C35.384,120.738 36.979,124.254 39.453,128.03Z" style="fill:rgb(255,202,40);fill-rule:nonzero;"/>
        </g>
        <g transform="matrix(4.49727,0,0,4.49727,28.183,267.337)">
            <path d="M222.852,50.458C223.893,45.901 225.065,41.637 226.367,37.665C227.669,33.694 228.809,30.667 229.785,28.583C230.762,26.5 231.25,25.784 231.25,26.435C231.25,26.956 231.022,28.616 230.566,31.415C230.111,34.215 229.557,37.698 228.906,41.865C228.255,46.031 227.669,50.328 227.148,54.755C226.628,59.182 226.237,63.284 225.977,67.06C225.586,74.091 225.456,81.253 225.586,88.544C225.716,95.836 225.618,103.128 225.293,110.419C224.967,117.711 223.861,124.775 221.973,131.611C220.085,138.447 216.96,144.957 212.598,151.142C208.236,157.327 202.083,162.958 194.141,168.036C191.146,169.859 187.077,172.008 181.934,174.482C176.79,176.956 170.703,178.583 163.672,179.365C162.5,179.495 161.719,179.332 161.328,178.876C160.938,178.421 161.719,177.867 163.672,177.216C170.052,175.523 175.749,173.277 180.762,170.478C185.775,167.678 189.193,165.628 191.016,164.326C198.047,158.727 203.548,152.965 207.519,147.04C211.491,141.116 214.29,135.029 215.918,128.779C217.546,122.529 218.522,116.083 218.848,109.443C219.173,102.802 219.271,95.966 219.141,88.935C219.141,86.461 219.206,83.108 219.336,78.876C219.466,74.645 219.792,70.022 220.313,65.009C220.833,59.996 221.68,55.146 222.852,50.458Z" style="fill:rgb(237,166,0);fill-rule:nonzero;"/>
        </g>
        <g transform="matrix(4.49727,0,0,4.49727,28.183,-516.318)">
            <path d="M149.219,226.272C149.219,226.272 148.698,226.728 147.656,227.639C146.615,228.551 145.215,229.072 143.457,229.202C141.699,229.332 139.909,228.29 138.086,226.077C136.393,223.993 134.049,220.673 131.055,216.116C128.06,211.558 124.805,206.383 121.289,200.588C117.773,194.794 114.29,189 110.84,183.206C107.389,177.411 104.264,172.236 101.465,167.678C98.665,163.121 96.549,159.736 95.117,157.522C93.424,154.918 91.374,153.355 88.965,152.835C86.556,152.314 85.352,152.053 85.352,152.053C85.872,151.793 87.012,151.37 88.77,150.784C90.527,150.198 92.643,150.361 95.117,151.272C97.591,152.183 100.26,154.592 103.125,158.499C104.557,160.582 106.608,163.74 109.277,167.971C111.947,172.203 114.909,176.956 118.164,182.229C121.419,187.503 124.707,192.808 128.027,198.147C131.348,203.486 134.408,208.303 137.207,212.6C140.007,216.897 142.188,220.217 143.75,222.561C145.052,224.384 146.289,225.458 147.461,225.784C148.633,226.109 149.219,226.272 149.219,226.272Z" style="fill:rgb(237,166,0);fill-rule:nonzero;"/>
        </g>
        <g transform="matrix(4.49727,0,0,4.49727,28.183,-13.596)">
            <path d="M48.828,118.004C45.964,114.879 43.62,113.316 41.797,113.316L39.063,113.316C39.583,113.056 40.56,112.568 41.992,111.852C43.424,111.135 45.15,110.908 47.168,111.168C49.186,111.428 51.367,112.796 53.711,115.27C54.883,116.441 56.868,118.59 59.668,121.715C62.467,124.84 65.592,128.258 69.043,131.969C72.493,135.68 75.879,139.195 79.199,142.516C82.52,145.836 85.221,148.343 87.305,150.035C89.128,151.337 90.592,152.021 91.699,152.086C92.806,152.151 93.359,152.184 93.359,152.184C93.359,152.184 92.839,152.77 91.797,153.941C90.755,155.113 89.323,155.927 87.5,156.383C85.677,156.839 83.594,156.025 81.25,153.941C79.297,152.119 76.66,149.384 73.34,145.738C70.02,142.093 66.602,138.284 63.086,134.313C59.57,130.341 56.478,126.793 53.809,123.668C51.139,120.543 49.479,118.655 48.828,118.004Z" style="fill:rgb(237,166,0);fill-rule:nonzero;"/>
        </g>
        <g transform="matrix(4.49727,0,0,4.49727,28.183,-290.283)">
            <path d="M120.117,191.832C119.987,192.613 119.401,193.525 118.359,194.566C117.318,195.608 115.951,196.194 114.258,196.324C112.565,196.454 110.807,195.478 108.984,193.395C108.724,193.134 107.585,191.702 105.566,189.098C103.548,186.494 101.009,183.271 97.949,179.43C94.889,175.588 91.634,171.487 88.184,167.125C84.733,162.763 81.445,158.596 78.32,154.625C75.195,150.654 72.559,147.333 70.41,144.664C68.262,141.995 66.992,140.465 66.602,140.074C63.997,136.949 61.719,135.191 59.766,134.801C57.813,134.41 56.836,134.215 56.836,134.215C57.357,133.824 58.431,133.466 60.059,133.141C61.686,132.815 63.737,133.141 66.211,134.117C68.685,135.094 71.419,137.405 74.414,141.051C74.414,141.051 75.293,142.125 77.051,144.273C78.809,146.422 81.055,149.189 83.789,152.574C86.523,155.96 89.486,159.573 92.676,163.414C95.866,167.255 98.958,170.999 101.953,174.645C104.948,178.29 107.487,181.383 109.57,183.922C111.654,186.461 112.956,187.991 113.477,188.512C115.56,191.116 117.188,192.32 118.359,192.125C119.531,191.93 120.117,191.832 120.117,191.832Z" style="fill:rgb(237,166,0);fill-rule:nonzero;"/>
        </g>
        <g transform="matrix(4.49727,0,0,4.49727,28.183,-139.057)">
            <path d="M193.75,151.956C194.792,155.732 194.792,159.345 193.75,162.796C192.708,166.246 191.341,169.241 189.648,171.78C187.956,174.319 186.523,176.174 185.352,177.346C180.534,182.555 177.018,187.503 174.805,192.19C172.591,196.878 171.224,201.272 170.703,205.374C170.182,209.475 170.117,213.186 170.508,216.507C170.898,219.827 171.289,222.724 171.68,225.198C171.81,226.24 172.135,227.77 172.656,229.788C173.177,231.806 173.633,233.336 174.023,234.378C174.674,235.94 174.479,236.949 173.438,237.405C172.396,237.861 171.224,237.047 169.922,234.964C169.01,233.271 167.969,230.862 166.797,227.737C165.625,224.612 164.779,221.227 164.258,217.581C163.346,210.419 163.346,204.202 164.258,198.928C165.169,193.655 166.667,189.065 168.75,185.159C170.833,181.253 173.177,177.77 175.781,174.71C178.385,171.65 180.99,168.688 183.594,165.823C184.896,164.26 185.644,162.372 185.84,160.159C186.035,157.945 185.938,155.927 185.547,154.104C183.724,150.719 181.315,146.357 178.32,141.018C175.326,135.68 172.07,129.853 168.555,123.538C165.039,117.223 161.491,110.875 157.91,104.495C154.329,98.115 151.009,92.19 147.949,86.721C144.889,81.253 142.35,76.695 140.332,73.049C138.314,69.404 137.109,67.19 136.719,66.409C134.896,63.544 133.268,61.591 131.836,60.549C130.404,59.508 129.264,58.987 128.418,58.987L127.148,58.987C127.539,58.727 128.581,58.434 130.273,58.108C131.966,57.783 133.952,58.141 136.23,59.182C138.509,60.224 140.755,62.698 142.969,66.604C143.49,67.385 144.759,69.501 146.777,72.952C148.796,76.402 151.335,80.699 154.395,85.842C157.454,90.986 160.742,96.52 164.258,102.444C167.773,108.369 171.256,114.26 174.707,120.12C178.158,125.979 181.315,131.318 184.18,136.135C187.044,140.953 189.356,144.794 191.113,147.659C192.871,150.523 193.75,151.956 193.75,151.956Z" style="fill:rgb(237,166,0);fill-rule:nonzero;"/>
        </g>
        <g transform="matrix(4.49727,0,0,4.49727,28.183,-741.914)">
            <path d="M196.875,236.787C197.005,237.307 197.298,237.861 197.754,238.447C198.21,239.033 199.023,239.195 200.195,238.935C201.237,238.544 201.856,237.926 202.051,237.079C202.246,236.233 202.279,235.55 202.148,235.029C201.367,230.081 200.13,225.393 198.438,220.966C196.745,216.539 194.271,211.982 191.016,207.294C185.547,199.352 178.906,193.818 171.094,190.693C170.833,190.563 170.313,190.497 169.531,190.497C168.75,190.497 168.099,190.953 167.578,191.865C167.188,192.646 167.155,193.427 167.481,194.208C167.806,194.99 168.164,195.51 168.555,195.771C174.935,200.328 180.469,205.862 185.156,212.372C190.365,219.664 194.271,227.802 196.875,236.787Z" style="fill:rgb(176,190,197);fill-rule:nonzero;"/>
        </g>
        <g transform="matrix(4.49727,0,0,4.49727,28.183,-654.79)">
            <path d="M184.424,227.1C184.554,227.621 184.847,228.174 185.303,228.76C185.759,229.346 186.572,229.509 187.744,229.249C188.786,228.858 189.404,228.24 189.6,227.393C189.795,226.547 189.828,225.863 189.697,225.342C188.916,220.394 187.679,215.707 185.986,211.28C184.294,206.853 181.82,202.296 178.564,197.608C173.096,189.665 166.455,184.131 158.643,181.006C158.382,180.876 157.861,180.811 157.08,180.811C156.299,180.811 155.648,181.267 155.127,182.178C154.736,182.96 154.704,183.741 155.029,184.522C155.355,185.303 155.713,185.824 156.103,186.085C162.484,190.642 168.018,196.176 172.705,202.686C177.913,209.978 181.82,218.116 184.424,227.1Z" style="fill:rgb(176,190,197);fill-rule:nonzero;"/>
        </g>
        <g transform="matrix(4.49727,0,0,4.49727,28.183,412.562)">
            <path d="M23.047,65.237C22.917,64.846 22.591,64.358 22.07,63.772C21.549,63.186 20.703,63.089 19.531,63.479C18.49,63.87 17.904,64.488 17.773,65.335C17.643,66.181 17.643,66.93 17.773,67.581C18.815,72.268 20.345,76.793 22.363,81.155C24.382,85.517 27.148,89.911 30.664,94.339C36.654,101.891 43.62,107.034 51.563,109.768C51.953,109.898 52.539,109.898 53.32,109.768C54.102,109.638 54.688,109.117 55.078,108.206C55.469,107.424 55.469,106.643 55.078,105.862C54.688,105.081 54.297,104.56 53.906,104.299C47.266,100.263 41.341,95.12 36.133,88.87C30.534,81.969 26.172,74.091 23.047,65.237Z" style="fill:rgb(176,190,197);fill-rule:nonzero;"/>
        </g>
        <g transform="matrix(4.49727,0,0,4.49727,28.183,318.191)">
            <path d="M34.821,75.729C34.69,75.338 34.365,74.85 33.844,74.264C33.323,73.678 32.477,73.581 31.305,73.971C30.263,74.362 29.677,74.98 29.547,75.827C29.417,76.673 29.417,77.422 29.547,78.073C30.589,82.76 32.119,87.285 34.137,91.647C36.155,96.009 38.922,100.403 42.438,104.831C48.427,112.383 55.393,117.526 63.336,120.26C63.727,120.39 64.313,120.39 65.094,120.26C65.875,120.13 66.461,119.609 66.852,118.698C67.242,117.916 67.242,117.135 66.852,116.354C66.461,115.573 66.071,115.052 65.68,114.791C59.039,110.755 53.115,105.612 47.906,99.362C42.307,92.461 37.946,84.583 34.821,75.729Z" style="fill:rgb(176,190,197);fill-rule:nonzero;"/>
        </g>
    </g>
</svg>
