<?xml version="1.0" encoding="UTF-8"?>
<svg xmlns="http://www.w3.org/2000/svg" xmlns:xlink="http://www.w3.org/1999/xlink" version="1.2" >
<font id="Material Icons">
<font-face  font-family="Material Icons" units-per-em="512" ascent="512" descent="0" font-style="normal" font-weight="400" font-stretch="normal" cap-height="0" x-height="0" underline-position="-125" underline-thickness="50" />
<missing-glyph  horiz-adv-x="512" d="M17 0 L17 341 L153 341 L153 0 L17 0 Z M34 17 L136 17 L136 324 L34 324 L34 17 Z " />
<glyph glyph-name="zero" unicode="0" horiz-adv-x="512" d="" />
<glyph glyph-name="one" unicode="1" horiz-adv-x="512" d="" />
<glyph glyph-name="two" unicode="2" horiz-adv-x="512" d="" />
<glyph glyph-name="three" unicode="3" horiz-adv-x="512" d="" />
<glyph glyph-name="four" unicode="4" horiz-adv-x="512" d="" />
<glyph glyph-name="five" unicode="5" horiz-adv-x="512" d="" />
<glyph glyph-name="six" unicode="6" horiz-adv-x="512" d="" />
<glyph glyph-name="seven" unicode="7" horiz-adv-x="512" d="" />
<glyph glyph-name="eight" unicode="8" horiz-adv-x="512" d="" />
<glyph glyph-name="nine" unicode="9" horiz-adv-x="512" d="" />
<glyph glyph-name="underscore" unicode="&#x5f;" horiz-adv-x="512" d="" />
<glyph glyph-name="a" unicode="a" horiz-adv-x="512" d="" />
<glyph glyph-name="b" unicode="b" horiz-adv-x="512" d="" />
<glyph glyph-name="c" unicode="c" horiz-adv-x="512" d="" />
<glyph glyph-name="d" unicode="d" horiz-adv-x="512" d="" />
<glyph glyph-name="e" unicode="e" horiz-adv-x="512" d="" />
<glyph glyph-name="f" unicode="f" horiz-adv-x="512" d="" />
<glyph glyph-name="g" unicode="g" horiz-adv-x="512" d="" />
<glyph glyph-name="h" unicode="h" horiz-adv-x="512" d="" />
<glyph glyph-name="i" unicode="i" horiz-adv-x="512" d="" />
<glyph glyph-name="j" unicode="j" horiz-adv-x="512" d="" />
<glyph glyph-name="k" unicode="k" horiz-adv-x="512" d="" />
<glyph glyph-name="l" unicode="l" horiz-adv-x="512" d="" />
<glyph glyph-name="m" unicode="m" horiz-adv-x="512" d="" />
<glyph glyph-name="n" unicode="n" horiz-adv-x="512" d="" />
<glyph glyph-name="o" unicode="o" horiz-adv-x="512" d="" />
<glyph glyph-name="p" unicode="p" horiz-adv-x="512" d="" />
<glyph glyph-name="q" unicode="q" horiz-adv-x="512" d="" />
<glyph glyph-name="r" unicode="r" horiz-adv-x="512" d="" />
<glyph glyph-name="s" unicode="s" horiz-adv-x="512" d="" />
<glyph glyph-name="t" unicode="t" horiz-adv-x="512" d="" />
<glyph glyph-name="u" unicode="u" horiz-adv-x="512" d="" />
<glyph glyph-name="v" unicode="v" horiz-adv-x="512" d="" />
<glyph glyph-name="w" unicode="w" horiz-adv-x="512" d="" />
<glyph glyph-name="x" unicode="x" horiz-adv-x="512" d="" />
<glyph glyph-name="y" unicode="y" horiz-adv-x="512" d="" />
<glyph glyph-name="z" unicode="z" horiz-adv-x="512" d="" />
<glyph glyph-name="uniE000" unicode="&#xe000;" horiz-adv-x="512" d="M277 235 L277 363 L235 363 L235 235 L277 235 Z M277 149 L277 192 L235 192 L235 149 L277 149 Z M105.5 406.5 Q168 469 256 469 Q344 469 406.5 406.5 Q469 344 469 256 Q469 168 406.5 105.5 Q344 43 256 43 Q168 43 105.5 105.5 Q43 168 43 256 Q43 344 105.5 406.5 Z " />
<glyph glyph-name="uniE001" unicode="&#xe001;" horiz-adv-x="512" d="M135.5 135.5 Q186 85 256 85 Q326 85 376.5 135.5 Q427 186 427 256 Q427 326 376.5 376.5 Q326 427 256 427 Q186 427 135.5 376.5 Q85 326 85 256 Q85 186 135.5 135.5 Z M105.5 406.5 Q168 469 256 469 Q344 469 406.5 406.5 Q469 344 469 256 Q469 168 406.5 105.5 Q344 43 256 43 Q168 43 105.5 105.5 Q43 168 43 256 Q43 344 105.5 406.5 Z M235 363 L277 363 L277 235 L235 235 L235 363 Z M235 192 L277 192 L277 149 L235 149 L235 192 Z " />
<glyph glyph-name="uniE002" unicode="&#xe002;" horiz-adv-x="512" d="M277 213 L277 299 L235 299 L235 213 L277 213 Z M277 128 L277 171 L235 171 L235 128 L277 128 Z M21 64 L256 469 L491 64 L21 64 Z " />
<glyph glyph-name="uniE003" unicode="&#xe003;" horiz-adv-x="512" d="M341 234 L341 277 L277 277 L277 341 L235 341 L235 277 L171 277 L171 234 L235 234 L235 170 L277 170 L277 234 L341 234 Z M403 153 L448 108 L448 85 L64 85 L64 108 L109 153 L109 277 Q109 325 142 367 Q175 409 222 420 L222 435 Q222 449 232 459 Q242 469 256 469 Q270 469 280 459 Q290 449 290 435 L290 420 Q339 409 371 368.5 Q403 328 403 277 L403 153 Z M214 64 L298 64 Q298 47 285.5 34 Q273 21 256 21 Q239 21 226.5 34 Q214 47 214 64 Z " />
<glyph glyph-name="uniE004" unicode="&#xe004;" horiz-adv-x="512" d="M256 43 Q238 43 225.5 55 Q213 67 213 85 L299 85 Q299 68 286 55.5 Q273 43 256 43 Z M277 256 L277 341 L235 341 L235 256 L277 256 Z M277 171 L277 213 L235 213 L235 171 L277 171 Z M384 171 L427 128 L427 107 L85 107 L85 128 L128 171 L128 277 Q128 327 153.5 364 Q179 401 224 412 L224 427 Q224 440 233 449.5 Q242 459 256 459 Q270 459 279 449.5 Q288 440 288 427 L288 412 Q333 401 358.5 364 Q384 327 384 277 L384 171 Z " />
<glyph glyph-name="uniE019" unicode="&#xe019;" horiz-adv-x="512" d="M241 271 Q247 277 256 277 Q265 277 271 271 Q277 265 277 256 Q277 247 271 241 Q265 235 256 235 Q247 235 241 241 Q235 247 235 256 Q235 265 241 271 Z M188 188 Q216 160 256 160 Q296 160 324 188 Q352 216 352 256 Q352 296 324 324 Q296 352 256 352 Q216 352 188 324 Q160 296 160 256 Q160 216 188 188 Z M105.5 406.5 Q168 469 256 469 Q344 469 406.5 406.5 Q469 344 469 256 Q469 168 406.5 105.5 Q344 43 256 43 Q168 43 105.5 105.5 Q43 168 43 256 Q43 344 105.5 406.5 Z " />
<glyph glyph-name="uniE01B" unicode="&#xe01b;" horiz-adv-x="512" d="M134 241 Q128 247 128 256 Q128 265 134 271 Q140 277 149 277 Q158 277 164.5 271 Q171 265 171 256 Q171 247 164.5 241 Q158 235 149 235 Q140 235 134 241 Z M378 271 Q384 265 384 256 Q384 247 378 241 Q372 235 363 235 Q354 235 347.5 241 Q341 247 341 256 Q341 265 347.5 271 Q354 277 363 277 Q372 277 378 271 Z M235 448 L256 448 Q336 448 392 392 Q448 336 448 256 Q448 176 392 120 Q336 64 256 64 Q176 64 120 120 Q64 176 64 256 Q64 352 141 409 L141 410 L286 265 L256 235 L140 350 Q107 309 107 256 Q107 194 150.5 150.5 Q194 107 256 107 Q318 107 361.5 150.5 Q405 194 405 256 Q405 312 368 354 Q331 396 277 404 L277 363 L235 363 L235 448 Z M241 134 Q235 140 235 149 Q235 158 241 164.5 Q247 171 256 171 Q265 171 271 164.5 Q277 158 277 149 Q277 140 271 134 Q265 128 256 128 Q247 128 241 134 Z " />
<glyph glyph-name="uniE01C" unicode="&#xe01c;" horiz-adv-x="512" d="M384 277 L384 299 Q384 308 378 314 Q372 320 363 320 L299 320 Q290 320 283.5 314 Q277 308 277 299 L277 213 Q277 204 283.5 198 Q290 192 299 192 L363 192 Q372 192 378 198 Q384 204 384 213 L384 235 L352 235 L352 224 L309 224 L309 288 L352 288 L352 277 L384 277 Z M235 277 L235 299 Q235 308 228.5 314 Q222 320 213 320 L149 320 Q140 320 134 314 Q128 308 128 299 L128 213 Q128 204 134 198 Q140 192 149 192 L213 192 Q222 192 228.5 198 Q235 204 235 213 L235 235 L203 235 L203 224 L160 224 L160 288 L203 288 L203 277 L235 277 Z M405 427 Q422 427 435 414 Q448 401 448 384 L448 128 Q448 111 435 98 Q422 85 405 85 L107 85 Q89 85 76.5 97.5 Q64 110 64 128 L64 384 Q64 402 76.5 414.5 Q89 427 107 427 L405 427 Z " />
<glyph glyph-name="uniE01D" unicode="&#xe01d;" horiz-adv-x="512" d="M341 320 L427 320 L427 85 L341 85 L341 320 Z M85 85 L85 256 L171 256 L171 85 L85 85 Z M213 85 L213 427 L299 427 L299 85 L213 85 Z " />
<glyph glyph-name="uniE01E" unicode="&#xe01e;" horiz-adv-x="512" d="M320 320 L320 363 L192 363 L192 149 L320 149 L320 192 L235 192 L235 235 L320 235 L320 277 L235 277 L235 320 L320 320 Z M405 448 Q422 448 435 435 Q448 422 448 405 L448 107 Q448 90 435 77 Q422 64 405 64 L107 64 Q90 64 77 77 Q64 90 64 107 L64 405 Q64 422 77 435 Q90 448 107 448 L405 448 Z " />
<glyph glyph-name="uniE01F" unicode="&#xe01f;" horiz-adv-x="512" d="M277 384 L459 256 L277 128 L277 384 Z M85 128 L85 384 L267 256 L85 128 Z " />
<glyph glyph-name="uniE020" unicode="&#xe020;" horiz-adv-x="512" d="M245 256 L427 384 L427 128 L245 256 Z M235 128 L53 256 L235 384 L235 128 Z " />
<glyph glyph-name="uniE021" unicode="&#xe021;" horiz-adv-x="512" d="M352 320 L469 320 L469 192 L352 192 L288 256 L352 320 Z M192 160 L256 224 L320 160 L320 43 L192 43 L192 160 Z M160 320 L224 256 L160 192 L43 192 L43 320 L160 320 Z M320 352 L256 288 L192 352 L192 469 L320 469 L320 352 Z " />
<glyph glyph-name="uniE023" unicode="&#xe023;" horiz-adv-x="512" d="M261 282.5 Q245 298 245 320 Q245 342 261 357.5 Q277 373 299 373 Q321 373 336.5 357.5 Q352 342 352 320 Q352 298 336.5 282.5 Q321 267 299 267 Q277 267 261 282.5 Z M163 456 Q107 400 107 320 Q107 240 163 184 L133 154 Q64 223 64 320 Q64 417 133 486 L163 456 Z M363 85 Q380 85 392.5 98 Q405 111 405 128 L448 128 Q448 93 423 68 Q398 43 363 43 Q344 43 328 50 Q287 71 269 126 Q262 148 233 170 Q192 200 172 237 Q149 278 149 320 Q149 383 192.5 426 Q236 469 299 469 Q362 469 405 426 Q448 383 448 320 L405 320 Q405 365 374.5 396 Q344 427 299 427 Q254 427 223 396 Q192 365 192 320 Q192 288 209 257 Q223 230 259 203 Q299 173 310 139 Q323 101 346 89 Q354 85 363 85 Z " />
<glyph glyph-name="uniE024" unicode="&#xe024;" horiz-adv-x="512" d="M309 224 L309 288 L352 288 L352 224 L309 224 Z M384 213 L384 299 Q384 308 378 314 Q372 320 363 320 L299 320 Q290 320 283.5 314 Q277 308 277 299 L277 213 Q277 204 283.5 198 Q290 192 299 192 L315 192 L315 160 L347 160 L347 192 L363 192 Q372 192 378 198 Q384 204 384 213 Z M235 192 L235 320 L203 320 L203 267 L160 267 L160 320 L128 320 L128 192 L160 192 L160 235 L203 235 L203 192 L235 192 Z M405 427 Q422 427 435 414 Q448 401 448 384 L448 128 Q448 111 435 98 Q422 85 405 85 L107 85 Q89 85 76.5 97.5 Q64 110 64 128 L64 384 Q64 402 76.5 414.5 Q89 427 107 427 L405 427 Z " />
<glyph glyph-name="uniE028" unicode="&#xe028;" horiz-adv-x="512" d="M256 128 L256 192 L341 107 L256 21 L256 85 Q186 85 135.5 135.5 Q85 186 85 256 Q85 306 112 347 L143 316 Q128 289 128 256 Q128 203 165.5 165.5 Q203 128 256 128 Z M256 427 Q326 427 376.5 376.5 Q427 326 427 256 Q427 206 400 165 L369 196 Q384 223 384 256 Q384 309 346.5 346.5 Q309 384 256 384 L256 320 L171 405 L256 491 L256 427 Z " />
<glyph glyph-name="uniE029" unicode="&#xe029;" horiz-adv-x="512" d="M369 277 L405 277 Q405 223 367.5 182.5 Q330 142 277 134 L277 64 L235 64 L235 134 Q182 142 144.5 182.5 Q107 223 107 277 L143 277 Q143 230 176.5 199.5 Q210 169 256 169 Q302 169 335.5 199.5 Q369 230 369 277 Z M301 232 Q282 213 256 213 Q230 213 211 232 Q192 251 192 277 L192 405 Q192 431 211 450 Q230 469 256 469 Q282 469 301 450 Q320 431 320 405 L320 277 Q320 251 301 232 Z " />
<glyph glyph-name="uniE02A" unicode="&#xe02a;" horiz-adv-x="512" d="M369 277 L405 277 Q405 223 367.5 182.5 Q330 142 277 134 L277 64 L235 64 L235 134 Q182 142 144.5 182.5 Q107 223 107 277 L143 277 Q143 230 176.5 199.5 Q210 169 256 169 Q302 169 335.5 199.5 Q369 230 369 277 Z M230 407 L230 275 Q230 265 237.5 257.5 Q245 250 256 250 Q266 250 273.5 257 Q281 264 281 275 L282 407 Q282 418 274 425.5 Q266 433 256 433 Q246 433 238 425.5 Q230 418 230 407 Z M301 232 Q282 213 256 213 Q230 213 211 232 Q192 251 192 277 L192 405 Q192 431 211 450 Q230 469 256 469 Q282 469 301 450 Q320 431 320 405 L320 277 Q320 251 301 232 Z " />
<glyph glyph-name="uniE02B" unicode="&#xe02b;" horiz-adv-x="512" d="M91 448 L448 91 L421 64 L332 153 Q310 139 277 134 L277 64 L235 64 L235 134 Q182 142 144.5 182.5 Q107 223 107 277 L143 277 Q143 230 176.5 199.5 Q210 169 256 169 Q281 169 305 180 L270 215 Q262 213 256 213 Q230 213 211 232 Q192 251 192 277 L192 293 L64 421 L91 448 Z M320 274 L192 401 L192 405 Q192 431 211 450 Q230 469 256 469 Q282 469 301 450 Q320 431 320 405 L320 274 Z M405 277 Q405 240 386 207 L360 234 Q369 254 369 277 L405 277 Z " />
<glyph glyph-name="uniE02C" unicode="&#xe02c;" horiz-adv-x="512" d="M384 427 L469 427 L469 128 Q469 111 456.5 98 Q444 85 427 85 L85 85 Q68 85 55.5 98 Q43 111 43 128 L43 384 Q43 401 55.5 414 Q68 427 85 427 L107 427 L149 341 L213 341 L171 427 L213 427 L256 341 L320 341 L277 427 L320 427 L363 341 L427 341 L384 427 Z " />
<glyph glyph-name="uniE02E" unicode="&#xe02e;" horiz-adv-x="512" d="M405 277 L405 320 L320 320 L320 405 L277 405 L277 320 L192 320 L192 277 L277 277 L277 192 L320 192 L320 277 L405 277 Z M427 469 Q444 469 456.5 456.5 Q469 444 469 427 L469 171 Q469 154 456.5 141 Q444 128 427 128 L171 128 Q154 128 141 141 Q128 154 128 171 L128 427 Q128 444 141 456.5 Q154 469 171 469 L427 469 Z M85 384 L85 85 L384 85 L384 43 L85 43 Q68 43 55.5 55.5 Q43 68 43 85 L43 384 L85 384 Z " />
<glyph glyph-name="uniE02F" unicode="&#xe02f;" horiz-adv-x="512" d="M405 363 L405 405 L192 405 L192 363 L405 363 Z M320 192 L320 235 L192 235 L192 192 L320 192 Z M405 277 L405 320 L192 320 L192 277 L405 277 Z M427 469 Q444 469 456.5 456.5 Q469 444 469 427 L469 171 Q469 154 456.5 141 Q444 128 427 128 L171 128 Q154 128 141 141 Q128 154 128 171 L128 427 Q128 444 141 456.5 Q154 469 171 469 L427 469 Z M85 384 L85 85 L384 85 L384 43 L85 43 Q68 43 55.5 55.5 Q43 68 43 85 L43 384 L85 384 Z " />
<glyph glyph-name="uniE030" unicode="&#xe030;" horiz-adv-x="512" d="M85 384 L85 85 L384 85 L384 43 L85 43 Q68 43 55.5 55.5 Q43 68 43 85 L43 384 L85 384 Z M384 363 L384 405 L299 405 L299 288 Q285 299 267 299 Q245 299 229 283 Q213 267 213 245 Q213 223 229 207.5 Q245 192 267 192 Q289 192 304.5 207.5 Q320 223 320 245 L320 363 L384 363 Z M427 469 Q444 469 456.5 456.5 Q469 444 469 427 L469 171 Q469 154 456.5 141 Q444 128 427 128 L171 128 Q154 128 141 141 Q128 154 128 171 L128 427 Q128 444 141 456.5 Q154 469 171 469 L427 469 Z " />
<glyph glyph-name="uniE031" unicode="&#xe031;" horiz-adv-x="512" d="M277 235 L277 363 L235 363 L235 235 L277 235 Z M277 149 L277 192 L235 192 L235 149 L277 149 Z M491 256 L439 197 L446 118 L369 101 L329 33 L256 64 L183 33 L143 100 L66 118 L73 197 L21 256 L73 316 L66 394 L143 411 L183 479 L256 448 L329 479 L369 411 L446 394 L439 315 L491 256 Z " />
<glyph glyph-name="uniE033" unicode="&#xe033;" horiz-adv-x="512" d="M391 151 Q427 196 427 256 Q427 326 376.5 376.5 Q326 427 256 427 Q232 427 201 416.5 Q170 406 151 391 L391 151 Z M256 85 Q280 85 311 95.5 Q342 106 361 121 L121 361 Q85 316 85 256 Q85 186 135.5 135.5 Q186 85 256 85 Z M105.5 406.5 Q168 469 256 469 Q344 469 406.5 406.5 Q469 344 469 256 Q469 168 406.5 105.5 Q344 43 256 43 Q168 43 105.5 105.5 Q43 168 43 256 Q43 344 105.5 406.5 Z " />
<glyph glyph-name="uniE034" unicode="&#xe034;" horiz-adv-x="512" d="M299 405 L384 405 L384 107 L299 107 L299 405 Z M128 107 L128 405 L213 405 L213 107 L128 107 Z " />
<glyph glyph-name="uniE035" unicode="&#xe035;" horiz-adv-x="512" d="M320 171 L320 341 L277 341 L277 171 L320 171 Z M235 171 L235 341 L192 341 L192 171 L235 171 Z M105.5 406.5 Q168 469 256 469 Q344 469 406.5 406.5 Q469 344 469 256 Q469 168 406.5 105.5 Q344 43 256 43 Q168 43 105.5 105.5 Q43 168 43 256 Q43 344 105.5 406.5 Z " />
<glyph glyph-name="uniE036" unicode="&#xe036;" horiz-adv-x="512" d="M277 171 L277 341 L320 341 L320 171 L277 171 Z M135.5 135.5 Q186 85 256 85 Q326 85 376.5 135.5 Q427 186 427 256 Q427 326 376.5 376.5 Q326 427 256 427 Q186 427 135.5 376.5 Q85 326 85 256 Q85 186 135.5 135.5 Z M105.5 406.5 Q168 469 256 469 Q344 469 406.5 406.5 Q469 344 469 256 Q469 168 406.5 105.5 Q344 43 256 43 Q168 43 105.5 105.5 Q43 168 43 256 Q43 344 105.5 406.5 Z M192 171 L192 341 L235 341 L235 171 L192 171 Z " />
<glyph glyph-name="uniE037" unicode="&#xe037;" horiz-adv-x="512" d="M171 405 L405 256 L171 107 L171 405 Z " />
<glyph glyph-name="uniE038" unicode="&#xe038;" horiz-adv-x="512" d="M213 160 L341 256 L213 352 L213 160 Z M105.5 406.5 Q168 469 256 469 Q344 469 406.5 406.5 Q469 344 469 256 Q469 168 406.5 105.5 Q344 43 256 43 Q168 43 105.5 105.5 Q43 168 43 256 Q43 344 105.5 406.5 Z " />
<glyph glyph-name="uniE039" unicode="&#xe039;" horiz-adv-x="512" d="M135.5 135.5 Q186 85 256 85 Q326 85 376.5 135.5 Q427 186 427 256 Q427 326 376.5 376.5 Q326 427 256 427 Q186 427 135.5 376.5 Q85 326 85 256 Q85 186 135.5 135.5 Z M105.5 406.5 Q168 469 256 469 Q344 469 406.5 406.5 Q469 344 469 256 Q469 168 406.5 105.5 Q344 43 256 43 Q168 43 105.5 105.5 Q43 168 43 256 Q43 344 105.5 406.5 Z M213 160 L213 352 L341 256 L213 160 Z " />
<glyph glyph-name="uniE03B" unicode="&#xe03b;" horiz-adv-x="512" d="M43 171 L43 213 L213 213 L213 171 L43 171 Z M384 213 L469 213 L469 171 L384 171 L384 85 L341 85 L341 171 L256 171 L256 213 L341 213 L341 299 L384 299 L384 213 Z M299 384 L299 341 L43 341 L43 384 L299 384 Z M299 299 L299 256 L43 256 L43 299 L299 299 Z " />
<glyph glyph-name="uniE03C" unicode="&#xe03c;" horiz-adv-x="512" d="M405 277 L405 320 L320 320 L320 405 L277 405 L277 320 L192 320 L192 277 L277 277 L277 192 L320 192 L320 277 L405 277 Z M427 469 Q444 469 456.5 456.5 Q469 444 469 427 L469 171 Q469 154 456.5 141 Q444 128 427 128 L171 128 Q154 128 141 141 Q128 154 128 171 L128 427 Q128 444 141 456.5 Q154 469 171 469 L427 469 Z M85 384 L85 85 L384 85 L384 43 L85 43 Q68 43 55.5 55.5 Q43 68 43 85 L43 384 L85 384 Z " />
<glyph glyph-name="uniE03D" unicode="&#xe03d;" horiz-adv-x="512" d="M363 384 L469 384 L469 341 L405 341 L405 149 Q405 123 386 104 Q367 85 341 85 Q315 85 296 104 Q277 123 277 149 Q277 175 296 194 Q315 213 341 213 Q349 213 363 209 L363 384 Z M64 171 L64 213 L235 213 L235 171 L64 171 Z M320 299 L320 256 L64 256 L64 299 L320 299 Z M320 384 L320 341 L64 341 L64 384 L320 384 Z " />
<glyph glyph-name="uniE03E" unicode="&#xe03e;" horiz-adv-x="512" d="M427 256 L427 341 L85 341 L85 256 L341 256 L341 299 L384 299 L384 256 L427 256 Z M104 104 Q123 85 149 85 Q175 85 194 104 Q213 123 213 149 Q213 175 194 194 Q175 213 149 213 Q123 213 104 194 Q85 175 85 149 Q85 123 104 104 Z M69 381 L339 491 L353 455 L177 384 L427 384 Q445 384 457 371.5 Q469 359 469 341 L469 85 Q469 67 457 55 Q445 43 427 43 L85 43 Q67 43 55 55 Q43 67 43 85 L43 341 Q43 371 69 381 Z " />
<glyph glyph-name="uniE03F" unicode="&#xe03f;" horiz-adv-x="512" d="M267 149 L267 165 Q267 187 234 200 Q201 213 171 213 Q141 213 108 200 Q75 187 75 165 L75 149 L267 149 Z M204.5 332.5 Q190 347 171 347 Q152 347 137.5 332.5 Q123 318 123 299 Q123 280 137.5 265.5 Q152 251 171 251 Q190 251 204.5 265.5 Q219 280 219 299 Q219 318 204.5 332.5 Z M299 405 Q308 405 314 399 Q320 393 320 384 L320 128 Q320 119 314 113 Q308 107 299 107 L43 107 Q34 107 27.5 113 Q21 119 21 128 L21 384 Q21 393 27.5 399 Q34 405 43 405 L299 405 Z M363 107 L363 405 L405 405 L405 107 L363 107 Z M448 405 L491 405 L491 107 L448 107 L448 405 Z " />
<glyph glyph-name="uniE040" unicode="&#xe040;" horiz-adv-x="512" d="M363 149 L363 235 L405 235 L405 107 L149 107 L149 43 L64 128 L149 213 L149 149 L363 149 Z M149 363 L149 277 L107 277 L107 405 L363 405 L363 469 L448 384 L363 299 L363 363 L149 363 Z " />
<glyph glyph-name="uniE041" unicode="&#xe041;" horiz-adv-x="512" d="M277 192 L245 192 L245 277 L213 277 L213 299 L256 320 L277 320 L277 192 Z M363 149 L363 235 L405 235 L405 107 L149 107 L149 43 L64 128 L149 213 L149 149 L363 149 Z M149 363 L149 277 L107 277 L107 405 L363 405 L363 469 L448 384 L363 299 L363 363 L149 363 Z " />
<glyph glyph-name="uniE042" unicode="&#xe042;" horiz-adv-x="512" d="M256 405 Q327 405 377 355 Q427 305 427 235 Q427 164 376.5 114 Q326 64 256 64 Q186 64 135.5 114 Q85 164 85 235 L128 235 Q128 182 165.5 144.5 Q203 107 256 107 Q309 107 346.5 144.5 Q384 182 384 235 Q384 288 346.5 325.5 Q309 363 256 363 L256 277 L149 384 L256 491 L256 405 Z " />
<glyph glyph-name="uniE043" unicode="&#xe043;" horiz-adv-x="512" d="M316 226 L383 159 L427 203 L427 85 L309 85 L353 129 L286 196 L316 226 Z M309 427 L427 427 L427 309 L383 353 L115 85 L85 115 L353 383 L309 427 Z M226 316 L196 286 L85 397 L115 427 L226 316 Z " />
<glyph glyph-name="uniE044" unicode="&#xe044;" horiz-adv-x="512" d="M341 384 L384 384 L384 128 L341 128 L341 384 Z M128 128 L128 384 L309 256 L128 128 Z " />
<glyph glyph-name="uniE045" unicode="&#xe045;" horiz-adv-x="512" d="M203 256 L384 384 L384 128 L203 256 Z M128 384 L171 384 L171 128 L128 128 L128 384 Z " />
<glyph glyph-name="uniE046" unicode="&#xe046;" horiz-adv-x="512" d="M192 277 L192 320 L320 320 L320 282 L243 192 L320 192 L320 149 L192 149 L192 188 L269 277 L192 277 Z M150.5 129 Q194 85 256 85 Q318 85 361.5 129 Q405 173 405 235 Q405 297 361.5 340.5 Q318 384 256 384 Q194 384 150.5 340.5 Q107 297 107 235 Q107 173 150.5 129 Z M120 370.5 Q176 427 256 427 Q336 427 392 370.5 Q448 314 448 235 Q448 156 392 99.5 Q336 43 256 43 Q176 43 120 99.5 Q64 156 64 235 Q64 314 120 370.5 Z M469 390 L442 357 L344 440 L371 472 L469 390 Z M168 440 L70 358 L43 390 L141 472 L168 440 Z " />
<glyph glyph-name="uniE047" unicode="&#xe047;" horiz-adv-x="512" d="M128 384 L384 384 L384 128 L128 128 L128 384 Z " />
<glyph glyph-name="uniE048" unicode="&#xe048;" horiz-adv-x="512" d="M427 213 L427 256 L213 256 L213 213 L427 213 Z M427 128 L427 171 L341 171 L341 128 L427 128 Z M299 128 L299 171 L85 171 L85 128 L299 128 Z M85 256 L85 213 L171 213 L171 256 L85 256 Z M427 427 Q444 427 456.5 414 Q469 401 469 384 L469 128 Q469 111 456.5 98 Q444 85 427 85 L85 85 Q68 85 55.5 98 Q43 111 43 128 L43 384 Q43 401 55.5 414 Q68 427 85 427 L427 427 Z " />
<glyph glyph-name="uniE049" unicode="&#xe049;" horiz-adv-x="512" d="M226 286 Q239 299 256 299 Q273 299 286 286 Q299 273 299 256 Q299 239 286 226 Q273 213 256 213 Q239 213 226 226 Q213 239 213 256 Q213 273 226 286 Z M377 135 Q427 185 427 256 L427 257 Q427 286 412.5 321.5 Q398 357 377 377 L346 346 Q384 308 384 256 Q384 202 347 165 L377 135 Z M196 196 Q221 171 256 171 Q291 171 316 196 Q341 221 341 256 Q341 291 316 316 Q291 341 256 341 Q221 341 196 316 Q171 291 171 256 Q171 221 196 196 Z M166 166 Q128 204 128 256 Q128 310 165 347 L135 377 Q85 327 85 256 L85 255 Q85 226 99.5 190.5 Q114 155 135 135 L166 166 Z M427 427 Q444 427 456.5 414 Q469 401 469 384 L469 128 Q469 111 456.5 98 Q444 85 427 85 L85 85 Q68 85 55.5 98 Q43 111 43 128 L43 384 Q43 401 55.5 414 Q68 427 85 427 L427 427 Z " />
<glyph glyph-name="uniE04A" unicode="&#xe04a;" horiz-adv-x="512" d="M256 203 L384 299 L256 395 L256 203 Z M427 469 Q444 469 456.5 456.5 Q469 444 469 427 L469 171 Q469 154 456.5 141 Q444 128 427 128 L171 128 Q154 128 141 141 Q128 154 128 171 L128 427 Q128 444 141 456.5 Q154 469 171 469 L427 469 Z M85 384 L85 85 L384 85 L384 43 L85 43 Q68 43 55.5 55.5 Q43 68 43 85 L43 384 L85 384 Z " />
<glyph glyph-name="uniE04B" unicode="&#xe04b;" horiz-adv-x="512" d="M363 288 L448 373 L448 139 L363 224 L363 149 Q363 140 356.5 134 Q350 128 341 128 L85 128 Q76 128 70 134 Q64 140 64 149 L64 363 Q64 372 70 378 Q76 384 85 384 L341 384 Q350 384 356.5 378 Q363 372 363 363 L363 288 Z " />
<glyph glyph-name="uniE04C" unicode="&#xe04c;" horiz-adv-x="512" d="M70 469 L448 91 L421 64 L353 132 Q347 128 341 128 L85 128 Q76 128 70 134 Q64 140 64 149 L64 363 Q64 372 70 378 Q76 384 85 384 L101 384 L43 442 L70 469 Z M448 373 L448 145 L209 384 L341 384 Q350 384 356.5 378 Q363 372 363 363 L363 288 L448 373 Z " />
<glyph glyph-name="uniE04D" unicode="&#xe04d;" horiz-adv-x="512" d="M107 320 L192 320 L299 427 L299 85 L192 192 L107 192 L107 320 Z M395 256 Q395 197 341 170 L341 342 Q363 331 379 305.5 Q395 280 395 256 Z " />
<glyph glyph-name="uniE04E" unicode="&#xe04e;" horiz-adv-x="512" d="M149 320 L235 320 L341 427 L341 85 L235 192 L149 192 L149 320 Z " />
<glyph glyph-name="uniE04F" unicode="&#xe04f;" horiz-adv-x="512" d="M256 427 L256 337 L211 382 L256 427 Z M91 448 L448 91 L421 64 L377 108 Q344 80 299 69 L299 113 Q324 120 347 138 L256 229 L256 85 L149 192 L64 192 L64 320 L165 320 L64 421 L91 448 Z M405 256 Q405 307 375.5 346 Q346 385 299 399 L299 443 Q364 429 406 376.5 Q448 324 448 256 Q448 209 426 167 L394 200 Q405 227 405 256 Z M352 256 Q352 247 351 243 L299 295 L299 342 Q321 331 336.5 306 Q352 281 352 256 Z " />
<glyph glyph-name="uniE050" unicode="&#xe050;" horiz-adv-x="512" d="M299 443 Q364 429 406 376.5 Q448 324 448 256 Q448 188 406 135.5 Q364 83 299 69 L299 113 Q346 127 375.5 166 Q405 205 405 256 Q405 307 375.5 346 Q346 385 299 399 L299 443 Z M352 256 Q352 196 299 170 L299 342 Q321 331 336.5 306 Q352 281 352 256 Z M64 320 L149 320 L256 427 L256 85 L149 192 L64 192 L64 320 Z " />
<glyph glyph-name="uniE051" unicode="&#xe051;" horiz-adv-x="512" d="M427 128 L427 320 L341 320 L341 128 L427 128 Z M320 235 L320 320 L85 320 L85 235 L320 235 Z M320 128 L320 213 L85 213 L85 128 L320 128 Z M427 427 Q444 427 456.5 414 Q469 401 469 384 L469 128 Q469 111 456.5 98 Q444 85 427 85 L85 85 Q68 85 55.5 98 Q43 111 43 128 L43 384 Q43 401 55.5 414 Q68 427 85 427 L427 427 Z " />
<glyph glyph-name="uniE052" unicode="&#xe052;" horiz-adv-x="512" d="M309 224 L309 288 L352 288 L352 224 L309 224 Z M277 320 L277 192 L363 192 Q372 192 378 198 Q384 204 384 213 L384 299 Q384 308 378 314 Q372 320 363 320 L277 320 Z M235 192 L235 320 L203 320 L203 267 L160 267 L160 320 L128 320 L128 192 L160 192 L160 235 L203 235 L203 192 L235 192 Z M405 448 Q422 448 435 435 Q448 422 448 405 L448 107 Q448 90 435 77 Q422 64 405 64 L107 64 Q89 64 76.5 76.5 Q64 89 64 107 L64 405 Q64 423 76.5 435.5 Q89 448 107 448 L405 448 Z " />
<glyph glyph-name="uniE053" unicode="&#xe053;" horiz-adv-x="512" d="M336 168 L466 168 L466 134 L284 134 L284 161 L410 344 L285 344 L285 378 L462 378 L462 351 L336 168 Z M106 221 L189 221 L147 332 L106 221 Z M130 378 L165 378 L261 134 L222 134 L202 186 L93 186 L73 134 L34 134 L130 378 Z M219 99 L318 99 L268 49 L219 99 Z M319 413 L218 413 L268 463 L319 413 Z " />
<glyph glyph-name="uniE055" unicode="&#xe055;" horiz-adv-x="512" d="M448 448 Q465 448 478 435 Q491 422 491 405 L491 149 Q491 132 478 119.5 Q465 107 448 107 L363 107 L363 149 L448 149 L448 405 L64 405 L64 149 L149 149 L149 107 L64 107 Q47 107 34 119.5 Q21 132 21 149 L21 405 Q21 422 34 435 Q47 448 64 448 L448 448 Z M128 43 L256 171 L384 43 L128 43 Z " />
<glyph glyph-name="uniE056" unicode="&#xe056;" horiz-adv-x="512" d="M282 188 Q282 181 292 181 Q297 181 299 183 L303 188 Q305 192 305 194 L305 237 Q303 241 303 243 Q303 245 298.5 247.5 Q294 250 292 250 Q289 250 286 247 L282 243 Q279 239 279 237 L279 194 Q282 190 282 188 Z M322 209 Q322 196 320 192 L314 179 Q307 173 303 173 Q301 173 296.5 172 Q292 171 290 171 Q281 171 277 173 Q275 174 272 176 Q269 178 267 179 Q258 184 258 209 L258 224 Q258 237 260 241 L267 254 Q273 260 277 260 Q279 260 283.5 261 Q288 262 290 262 Q299 262 303 260 Q305 259 308.5 257 Q312 255 314 254 Q316 253 320 241 Q322 235 322 224 L322 209 Z M233 171 L213 171 L213 241 L192 235 L192 250 L230 262 L233 262 L233 171 Z M85 235 Q85 305 135 355 Q185 405 256 405 L256 491 L363 384 L256 277 L256 363 Q204 363 166 325.5 Q128 288 128 235 Q128 182 166 144.5 Q204 107 256 107 Q308 107 346 144.5 Q384 182 384 235 L427 235 Q427 164 376.5 114 Q326 64 256 64 Q186 64 135.5 114 Q85 164 85 235 Z " />
<glyph glyph-name="uniE057" unicode="&#xe057;" horiz-adv-x="512" d="M85 235 Q85 305 135 355 Q185 405 256 405 L256 491 L363 384 L256 277 L256 363 Q204 363 166 325.5 Q128 288 128 235 Q128 182 166 144.5 Q204 107 256 107 Q308 107 346 144.5 Q384 182 384 235 L427 235 Q427 164 376.5 114 Q326 64 256 64 Q186 64 135.5 114 Q85 164 85 235 Z M284 188 Q284 181 294 181 Q299 181 301 183 L305 188 Q307 192 307 194 L307 237 Q305 241 305 243 Q305 245 300.5 247.5 Q296 250 294 250 Q291 250 288 247 L284 243 Q282 239 282 237 L282 194 Q284 190 284 188 Z M326 209 Q326 196 324 192 L318 179 Q311 173 307 173 Q305 173 300.5 172 Q296 171 294 171 Q287 171 271 179 Q269 180 265 192 Q262 201 262 209 L262 224 Q262 235 265 241 L271 254 Q278 260 282 260 Q284 260 288 261 Q292 262 294 262 Q303 262 307 260 Q309 259 312.5 257 Q316 255 318 254 Q320 253 324 241 Q326 235 326 224 L326 209 Z M213 224 Q228 224 228 237 L228 241 Q226 243 226 245 Q226 247 222 247 L211 247 Q209 245 207 245 Q205 245 205 241 L205 237 L183 237 Q183 245 188.5 252.5 Q194 260 201 260 Q202 260 206 261 Q210 262 211 262 Q223 262 235 256 Q243 252 243 237 L243 230 Q241 226 241 224 Q241 220 237 220 Q235 220 230 215 Q239 210 241 207 Q245 199 245 194 Q245 185 243 183 Q242 182 240 179 Q238 176 237 175 Q233 171 226 171 Q224 171 219.5 170 Q215 169 213 169 Q205 169 203 171 Q202 172 198 173 Q194 174 192 175 Q183 180 183 196 L201 196 L201 192 Q203 190 203 188 Q203 186 207 186 L218 186 Q220 188 222 188 Q224 188 224 192 L224 203 Q222 205 222 207 Q222 209 218 209 L205 209 L205 224 L213 224 Z " />
<glyph glyph-name="uniE058" unicode="&#xe058;" horiz-adv-x="512" d="M250 222 Q243 219 243 218 L241 215 L228 215 L233 262 L284 262 L284 247 L247 247 L245 228 Q247 228 247 230 Q247 231 248.5 231.5 Q250 232 250 233 L254 233 L258 233 Q266 233 269 230 Q270 229 273 227 Q276 225 277 224 Q286 215 286 201 Q286 192 284 190 Q283 189 281 185 Q279 181 277 179 Q269 171 254 171 Q245 171 243 173 Q242 174 238.5 175 Q235 176 233 177 Q224 182 224 196 L241 196 Q241 186 254 186 Q258 186 260 188 L265 192 Q267 196 267 198 L267 211 L265 215 L260 220 Q256 222 254 222 L250 222 Z M85 235 Q85 305 135 355 Q185 405 256 405 L256 491 L363 384 L256 277 L256 363 Q204 363 166 325.5 Q128 288 128 235 Q128 182 166 144.5 Q204 107 256 107 Q308 107 346 144.5 Q384 182 384 235 L427 235 Q427 164 376.5 114 Q326 64 256 64 Q186 64 135.5 114 Q85 164 85 235 Z " />
<glyph glyph-name="uniE059" unicode="&#xe059;" horiz-adv-x="512" d="M282 188 Q282 181 292 181 Q297 181 299 183 L303 188 Q305 192 305 194 L305 237 Q303 241 303 243 Q303 245 298.5 247.5 Q294 250 292 250 Q289 250 286 247 L282 243 Q279 239 279 237 L279 194 Q282 190 282 188 Z M324 209 Q324 196 322 192 L316 179 Q309 173 305 173 Q303 173 298.5 172 Q294 171 292 171 Q283 171 279 173 Q277 174 274 176 Q271 178 269 179 Q260 184 260 209 L260 224 Q260 237 262 241 L269 254 Q275 260 279 260 Q281 260 285.5 261 Q290 262 292 262 Q301 262 305 260 Q307 259 310.5 257 Q314 255 316 254 Q318 253 322 241 Q324 235 324 224 L324 209 Z M233 171 L213 171 L213 241 L192 235 L192 250 L230 262 L233 262 L233 171 Z M256 405 Q327 405 377 355 Q427 305 427 235 Q427 164 376.5 114 Q326 64 256 64 Q186 64 135.5 114 Q85 164 85 235 L128 235 Q128 182 166 144.5 Q204 107 256 107 Q308 107 346 144.5 Q384 182 384 235 Q384 288 346 325.5 Q308 363 256 363 L256 277 L149 384 L256 491 L256 405 Z " />
<glyph glyph-name="uniE05A" unicode="&#xe05a;" horiz-adv-x="512" d="M286 188 Q286 181 297 181 Q301 181 303 183 L307 188 Q309 192 309 194 L309 237 Q309 238 308 240 Q307 242 307 243 Q307 245 303 247.5 Q299 250 297 250 Q293 250 290 247 L286 243 Q284 239 284 237 L284 194 Q286 190 286 188 Z M326 209 Q326 196 324 192 L318 179 Q311 173 307 173 Q305 173 300.5 172 Q296 171 294 171 Q287 171 271 179 Q269 180 265 192 Q262 201 262 209 L262 224 Q262 235 265 241 L271 254 Q278 260 282 260 Q284 260 288 261 Q292 262 294 262 Q303 262 307 260 Q309 259 312.5 257 Q316 255 318 254 Q320 253 324 241 Q326 235 326 224 L326 209 Z M213 224 Q228 224 228 237 L228 241 Q226 243 226 245 Q226 247 222 247 L211 247 Q209 245 207 245 Q205 245 205 241 L205 237 L183 237 Q183 245 188.5 252.5 Q194 260 201 260 Q202 260 206 261 Q210 262 211 262 Q223 262 235 256 Q243 252 243 237 L243 230 Q241 226 241 224 Q241 220 237 220 Q235 220 230 215 Q239 210 241 207 Q245 199 245 194 Q245 185 243 183 Q242 182 240 179 Q238 176 237 175 Q233 171 226 171 Q224 171 219.5 170 Q215 169 213 169 Q205 169 203 171 Q202 172 198 173 Q194 174 192 175 Q183 180 183 196 L201 196 L201 192 Q203 190 203 188 Q203 186 207 186 L218 186 Q220 188 222 188 Q224 188 224 192 L224 203 Q222 205 222 207 Q222 209 218 209 L205 209 L205 224 L213 224 Z M256 405 Q327 405 377 355 Q427 305 427 235 Q427 164 376.5 114 Q326 64 256 64 Q186 64 135.5 114 Q85 164 85 235 L128 235 Q128 182 166 144.5 Q204 107 256 107 Q308 107 346 144.5 Q384 182 384 235 Q384 288 346 325.5 Q308 363 256 363 L256 277 L149 384 L256 491 L256 405 Z " />
<glyph glyph-name="uniE05B" unicode="&#xe05b;" horiz-adv-x="512" d="M252 222 Q245 219 245 218 L243 215 L228 215 L233 262 L284 262 L284 247 L247 247 L245 228 Q247 228 247 230 Q247 231 248.5 231.5 Q250 232 250 233 L254 233 L258 233 Q266 233 269 230 Q270 229 273 227 Q276 225 277 224 Q286 215 286 201 Q286 192 284 190 Q283 189 281 185 Q279 181 277 179 Q275 177 272.5 175.5 Q270 174 269 173 Q267 171 256 171 Q247 171 245 173 Q244 174 240.5 175 Q237 176 235 177 Q226 182 226 196 L243 196 Q243 186 256 186 Q260 186 262 188 L267 192 Q269 196 269 198 L269 211 L267 215 L262 220 Q258 222 256 222 L252 222 Z M256 405 Q327 405 377 355 Q427 305 427 235 Q427 164 376.5 114 Q326 64 256 64 Q186 64 135.5 114 Q85 164 85 235 L128 235 Q128 182 166 144.5 Q204 107 256 107 Q308 107 346 144.5 Q384 182 384 235 Q384 288 346 325.5 Q308 363 256 363 L256 277 L149 384 L256 491 L256 405 Z " />
<glyph glyph-name="uniE05C" unicode="&#xe05c;" horiz-adv-x="512" d="M341 299 L341 256 L277 256 L277 192 L235 192 L235 256 L171 256 L171 299 L235 299 L235 363 L277 363 L277 299 L341 299 Z M448 149 L448 405 L64 405 L64 149 L448 149 Z M448 448 Q466 448 478.5 435.5 Q491 423 491 405 L490 149 Q490 132 477.5 119.5 Q465 107 448 107 L341 107 L341 64 L171 64 L171 107 L64 107 Q46 107 33.5 119 Q21 131 21 149 L21 405 Q21 423 33.5 435.5 Q46 448 64 448 L448 448 Z " />
<glyph glyph-name="uniE05D" unicode="&#xe05d;" horiz-adv-x="512" d="M448 267 L448 288 Q448 302 439 311 Q430 320 416 320 L341 320 L341 192 L373 192 L373 235 L398 235 L416 192 L448 192 L429 237 Q448 246 448 267 Z M269 192 L307 320 L275 320 L253 247 L232 320 L200 320 L237 192 L269 192 Z M171 224 L171 288 Q171 302 161.5 311 Q152 320 139 320 L64 320 L64 192 L139 192 Q152 192 161.5 201 Q171 210 171 224 Z M448 448 Q466 448 478.5 435.5 Q491 423 491 405 L491 107 Q491 89 478.5 76.5 Q466 64 448 64 L64 64 Q46 64 33.5 76.5 Q21 89 21 107 L21 405 Q21 423 33.5 435.5 Q46 448 64 448 L448 448 Z M96 288 L139 288 L139 224 L96 224 L96 288 Z M373 288 L416 288 L416 267 L373 267 L373 288 Z " />
<glyph glyph-name="uniE05E" unicode="&#xe05e;" horiz-adv-x="512" d="M437 213 L437 320 L411 320 L411 224 L387 224 L387 299 L360 299 L360 224 L336 224 L336 320 L309 320 L309 213 Q309 204 315.5 198 Q322 192 331 192 L416 192 Q425 192 431 198 Q437 204 437 213 Z M288 293 L288 320 L203 320 L203 192 L288 192 L288 219 L235 219 L235 242 L288 242 L288 269 L235 269 L235 293 L288 293 Z M181 192 L181 320 L155 320 L155 245 L101 320 L75 320 L75 192 L101 192 L101 267 L156 192 L181 192 Z M427 427 Q445 427 457 414.5 Q469 402 469 384 L469 128 Q469 110 457 97.5 Q445 85 427 85 L85 85 Q67 85 55 97.5 Q43 110 43 128 L43 384 Q43 402 55 414.5 Q67 427 85 427 L427 427 Z " />
<glyph glyph-name="uniE05F" unicode="&#xe05f;" horiz-adv-x="512" d="M299 213 L405 149 L299 85 L299 213 Z M85 213 L256 213 L256 171 L85 171 L85 213 Z M85 384 L341 384 L341 341 L85 341 L85 384 Z M85 299 L341 299 L341 256 L85 256 L85 299 Z " />
<glyph glyph-name="uniE060" unicode="&#xe060;" horiz-adv-x="512" d="M224 192 L176 256 L139 208 L112 240 L75 192 L224 192 Z M256 320 L256 192 Q256 175 243 162 Q230 149 213 149 L85 149 Q68 149 55.5 162 Q43 175 43 192 L43 320 Q43 337 55.5 350 Q68 363 85 363 L213 363 Q230 363 243 350 Q256 337 256 320 Z M299 149 L299 192 L469 192 L469 149 L299 149 Z M469 363 L469 320 L299 320 L299 363 L469 363 Z M469 235 L299 235 L299 277 L469 277 L469 235 Z " />
<glyph glyph-name="uniE061" unicode="&#xe061;" horiz-adv-x="512" d="M135.5 135.5 Q85 186 85 256 Q85 326 135.5 376.5 Q186 427 256 427 Q326 427 376.5 376.5 Q427 326 427 256 Q427 186 376.5 135.5 Q326 85 256 85 Q186 85 135.5 135.5 Z " />
<glyph glyph-name="uniE062" unicode="&#xe062;" horiz-adv-x="512" d="M363 421 Q419 407 455 361 Q491 315 491 256 Q491 197 455 151 Q419 105 363 91 L363 135 Q398 148 423 183.5 Q448 219 448 256 Q448 293 423 328.5 Q398 364 363 377 L363 421 Z M71.5 135.5 Q21 186 21 256 Q21 326 71.5 376.5 Q122 427 192 427 Q262 427 312.5 376.5 Q363 326 363 256 Q363 186 312.5 135.5 Q262 85 192 85 Q122 85 71.5 135.5 Z " />
<glyph glyph-name="uniE063" unicode="&#xe063;" horiz-adv-x="512" d="M190 147 Q171 166 171 192 Q171 218 190 237 Q209 256 235 256 Q242 256 256 252 L256 384 L363 384 L363 341 L299 341 L299 191 Q299 165 280 146.5 Q261 128 235 128 Q209 128 190 147 Z M448 107 L448 405 L64 405 L64 107 L448 107 Z M448 448 Q465 448 478 435 Q491 422 491 405 L491 107 Q491 90 478 77 Q465 64 448 64 L64 64 Q47 64 34 77 Q21 90 21 107 L21 405 Q21 422 34 435 Q47 448 64 448 L448 448 Z " />
<glyph glyph-name="uniE064" unicode="&#xe064;" horiz-adv-x="512" d="M341 171 L213 240 L213 101 L341 171 Z M469 256 L469 85 Q469 68 456.5 55.5 Q444 43 427 43 L85 43 Q68 43 55.5 55.5 Q43 68 43 85 L43 256 Q43 273 55.5 286 Q68 299 85 299 L427 299 Q444 299 456.5 286 Q469 273 469 256 Z M384 469 L384 427 L128 427 L128 469 L384 469 Z M427 341 L85 341 L85 384 L427 384 L427 341 Z " />
<glyph glyph-name="uniE065" unicode="&#xe065;" horiz-adv-x="512" d="M459 267 L491 235 L342 85 L245 181 L277 213 L342 149 L459 267 Z M43 171 L43 213 L213 213 L213 171 L43 171 Z M299 384 L299 341 L43 341 L43 384 L299 384 Z M299 299 L299 256 L43 256 L43 299 L299 299 Z " />
<glyph glyph-name="uniE066" unicode="&#xe066;" horiz-adv-x="512" d="M512 128 L416 32 L384 64 L448 128 L384 192 L416 224 L512 128 Z M277 299 L341 299 L341 256 L277 256 L277 192 L235 192 L235 256 L171 256 L171 299 L235 299 L235 363 L277 363 L277 299 Z M448 448 Q466 448 478.5 435.5 Q491 423 491 405 L491 235 L448 235 L448 405 L64 405 L64 149 L384 149 L384 107 L341 107 L341 64 L171 64 L171 107 L64 107 Q46 107 33.5 119 Q21 131 21 149 L21 405 Q21 423 33.5 435.5 Q46 448 64 448 L448 448 Z " />
<glyph glyph-name="uniE067" unicode="&#xe067;" horiz-adv-x="512" d="M341 299 L341 256 L171 256 L171 299 L341 299 Z M448 149 L448 405 L64 405 L64 149 L448 149 Z M448 448 Q466 448 478.5 435.5 Q491 423 491 405 L490 149 Q490 132 477.5 119.5 Q465 107 448 107 L341 107 L341 64 L171 64 L171 107 L64 107 Q46 107 33.5 119 Q21 131 21 149 L21 405 Q21 423 33.5 435.5 Q46 448 64 448 L448 448 Z " />
<glyph glyph-name="uniE068" unicode="&#xe068;" horiz-adv-x="512" d="M414 399 Q469 338 469 256 Q469 174 414 113 Q359 52 278 44 L278 87 Q341 95 384 143.5 Q427 192 427 256 Q427 320 384 368.5 Q341 417 278 425 L278 468 Q359 460 414 399 Z M121 91 L151 121 Q187 93 235 87 L235 44 Q208 47 174.5 61 Q141 75 121 91 Z M87 235 Q92 188 121 152 L91 121 Q50 172 44 235 L87 235 Z M121 361 Q93 324 87 277 L44 277 Q47 304 61 337.5 Q75 371 91 391 L121 361 Z M235 425 Q187 419 151 391 L121 421 Q172 462 235 468 L235 425 Z M278 303 L341 256 Q278 209 213 160 L278 303 Z " />
<glyph glyph-name="uniE069" unicode="&#xe069;" horiz-adv-x="512" d="M405 128 L405 341 L107 341 L107 128 L405 128 Z M405 427 Q423 427 435.5 414.5 Q448 402 448 384 L448 128 Q448 111 435 98 Q422 85 405 85 L107 85 Q89 85 76.5 97.5 Q64 110 64 128 L64 384 Q64 402 76.5 414.5 Q89 427 107 427 L405 427 Z " />
<glyph glyph-name="uniE06A" unicode="&#xe06a;" horiz-adv-x="512" d="M427 192 L427 320 L400 320 L400 245 L347 320 L320 320 L320 192 L347 192 L347 267 L401 192 L427 192 Z M267 192 L267 320 L235 320 L235 192 L267 192 Z M192 267 L192 288 Q192 302 183 311 Q174 320 160 320 L85 320 L85 192 L117 192 L117 235 L160 235 Q174 235 183 244.5 Q192 254 192 267 Z M427 427 Q445 427 457 414.5 Q469 402 469 384 L469 128 Q469 110 457 97.5 Q445 85 427 85 L85 85 Q67 85 55 97.5 Q43 110 43 128 L43 384 Q43 402 55 414.5 Q67 427 85 427 L427 427 Z M117 288 L160 288 L160 267 L117 267 L117 288 Z " />
<glyph glyph-name="uniE06B" unicode="&#xe06b;" horiz-adv-x="512" d="M448 107 L448 235 L256 235 L256 107 L448 107 Z M448 448 Q465 448 478 435 Q491 422 491 405 L491 107 Q491 90 478 77 Q465 64 448 64 L64 64 Q47 64 34 77 Q21 90 21 107 L21 405 Q21 422 34 435 Q47 448 64 448 L448 448 Z " />
<glyph glyph-name="uniE06C" unicode="&#xe06c;" horiz-adv-x="512" d="M448 107 L448 171 L64 171 L64 107 L448 107 Z M448 448 Q465 448 478 435 Q491 422 491 405 L491 107 Q491 90 478 77 Q465 64 448 64 L64 64 Q47 64 34 77 Q21 90 21 107 L21 405 Q21 422 34 435 Q47 448 64 448 L448 448 Z " />
<glyph glyph-name="uniE06D" unicode="&#xe06d;" horiz-adv-x="512" d="M256 363 L256 405 L64 405 L64 363 L256 363 Z M256 277 L256 320 L64 320 L64 277 L256 277 Z M448 448 Q465 448 478 435 Q491 422 491 405 L491 107 Q491 90 478 77 Q465 64 448 64 L64 64 Q47 64 34 77 Q21 90 21 107 L21 405 Q21 422 34 435 Q47 448 64 448 L448 448 Z " />
<glyph glyph-name="uniE06E" unicode="&#xe06e;" horiz-adv-x="512" d="M256 256 L256 405 L64 405 L64 256 L256 256 Z M448 448 Q465 448 478 435 Q491 422 491 405 L491 107 Q491 90 478 77 Q465 64 448 64 L64 64 Q47 64 34 77 Q21 90 21 107 L21 405 Q21 422 34 435 Q47 448 64 448 L448 448 Z " />
<glyph glyph-name="uniE06F" unicode="&#xe06f;" horiz-adv-x="512" d="M320 395 L320 277 L437 277 L320 395 Z M469 299 L469 128 Q469 111 456.5 98.5 Q444 86 427 86 L85 85 Q68 85 55.5 98 Q43 111 43 128 L43 384 Q43 401 55.5 414 Q68 427 85 427 L341 427 L469 299 Z " />
<glyph glyph-name="uniE070" unicode="&#xe070;" horiz-adv-x="512" d="M299 235 L299 277 L235 277 L235 341 L192 341 L192 277 L128 277 L128 235 L192 235 L192 171 L235 171 L235 235 L299 235 Z M363 288 L448 373 L448 139 L363 224 L363 149 Q363 140 356.5 134 Q350 128 341 128 L85 128 Q76 128 70 134 Q64 140 64 149 L64 363 Q64 372 70 378 Q76 384 85 384 L341 384 Q350 384 356.5 378 Q363 372 363 363 L363 288 Z " />
<glyph glyph-name="uniE071" unicode="&#xe071;" horiz-adv-x="512" d="M448 171 L448 405 L64 405 L64 171 L448 171 Z M448 448 Q465 448 478 435 Q491 422 491 405 L491 107 Q491 90 478 77 Q465 64 448 64 L64 64 Q47 64 34 77 Q21 90 21 107 L21 405 Q21 422 34 435 Q47 448 64 448 L448 448 Z " />
<glyph glyph-name="uniE072" unicode="&#xe072;" horiz-adv-x="512" d="M384 192 L336 256 L384 320 L347 320 L309 272 L309 320 L277 320 L277 192 L309 192 L309 240 L347 192 L384 192 Z M256 224 L256 256 L235 256 L235 320 L203 320 L203 256 L171 256 L171 320 L139 320 L139 224 L203 224 L203 192 L235 192 L235 224 L256 224 Z M405 448 Q422 448 435 435 Q448 422 448 405 L448 107 Q448 90 435 77 Q422 64 405 64 L107 64 Q90 64 77 77 Q64 90 64 107 L64 405 Q64 422 77 435 Q90 448 107 448 L405 448 Z " />
<glyph glyph-name="uniE073" unicode="&#xe073;" horiz-adv-x="512" d="M213 192 L320 299 L303 316 L213 225 L147 292 L201 292 L201 315 L107 315 L107 221 L130 221 L130 275 L213 192 Z M363 288 L448 373 L448 139 L363 224 L363 149 Q363 140 356.5 134 Q350 128 341 128 L85 128 Q76 128 70 134 Q64 140 64 149 L64 363 Q64 372 70 378 Q76 384 85 384 L341 384 Q350 384 356.5 378 Q363 372 363 363 L363 288 Z " />
<glyph glyph-name="uniE074" unicode="&#xe074;" horiz-adv-x="512" d="M211 211 Q192 230 192 256 Q192 282 211 301 Q230 320 256 320 Q282 320 301 301 Q320 282 320 256 Q320 230 301 211 Q282 192 256 192 Q230 192 211 211 Z M118 332 L156 294 L118 256 L156 218 L118 180 L43 256 L118 332 Z M180 118 L218 156 L256 118 L294 156 L332 118 L256 43 L180 118 Z M394 180 L356 218 L394 256 L356 294 L394 332 L469 256 L394 180 Z M332 394 L294 356 L256 394 L218 356 L180 394 L256 469 L332 394 Z " />
<glyph glyph-name="uniE0AF" unicode="&#xe0af;" horiz-adv-x="512" d="M384 192 L384 149 L341 149 L341 192 L384 192 Z M384 277 L384 235 L341 235 L341 277 L384 277 Z M427 107 L427 320 L256 320 L256 277 L299 277 L299 235 L256 235 L256 192 L299 192 L299 149 L256 149 L256 107 L427 107 Z M213 363 L213 405 L171 405 L171 363 L213 363 Z M213 277 L213 320 L171 320 L171 277 L213 277 Z M213 192 L213 235 L171 235 L171 192 L213 192 Z M213 107 L213 149 L171 149 L171 107 L213 107 Z M128 363 L128 405 L85 405 L85 363 L128 363 Z M128 277 L128 320 L85 320 L85 277 L128 277 Z M128 192 L128 235 L85 235 L85 192 L128 192 Z M128 107 L128 149 L85 149 L85 107 L128 107 Z M256 363 L469 363 L469 64 L43 64 L43 448 L256 448 L256 363 Z " />
<glyph glyph-name="uniE0B0" unicode="&#xe0b0;" horiz-adv-x="512" d="M427 184 Q436 184 442 178 Q448 172 448 163 L448 89 Q448 64 427 64 Q278 64 171 171 Q64 278 64 427 Q64 448 89 448 L163 448 Q172 448 178 442 Q184 436 184 427 Q184 388 196 352 Q200 339 191 330 L150 294 Q196 198 297 149 L330 191 Q336 197 345 197 Q350 197 352 196 Q388 184 427 184 Z " />
<glyph glyph-name="uniE0B1" unicode="&#xe0b1;" horiz-adv-x="512" d="M256 320 Q204 320 158 305 L158 239 Q158 224 146 219 Q114 204 89 180 Q83 174 74 174 Q65 174 59 180 L6 233 Q0 239 0 248 Q0 257 6 263 Q111 363 256 363 Q401 363 506 263 Q512 257 512 248 Q512 239 506 233 L453 180 Q447 174 438 174 Q429 174 423 180 Q401 201 366 219 Q354 224 354 238 L354 304 Q304 320 256 320 Z " />
<glyph glyph-name="uniE0B2" unicode="&#xe0b2;" horiz-adv-x="512" d="M192 405 L405 405 L405 192 L363 192 L363 333 L115 85 L85 115 L333 363 L192 363 L192 405 Z " />
<glyph glyph-name="uniE0B3" unicode="&#xe0b3;" horiz-adv-x="512" d="M160 341 L256 437 L352 341 L277 341 L277 205 L149 77 L119 107 L235 222 L235 341 L160 341 Z M363 77 L290 149 L320 179 L393 107 L363 77 Z " />
<glyph glyph-name="uniE0B4" unicode="&#xe0b4;" horiz-adv-x="512" d="M418 363 L448 333 L256 141 L107 290 L107 192 L64 192 L64 363 L235 363 L235 320 L137 320 L256 201 L418 363 Z " />
<glyph glyph-name="uniE0B5" unicode="&#xe0b5;" horiz-adv-x="512" d="M427 397 L179 149 L320 149 L320 107 L107 107 L107 320 L149 320 L149 179 L397 427 L427 397 Z " />
<glyph glyph-name="uniE0B6" unicode="&#xe0b6;" horiz-adv-x="512" d="M213 427 L164 378 L277 265 L277 85 L235 85 L235 247 L134 348 L85 299 L85 427 L213 427 Z M299 427 L427 427 L427 299 L378 348 L316 286 L286 316 L348 378 L299 427 Z " />
<glyph glyph-name="uniE0B7" unicode="&#xe0b7;" horiz-adv-x="512" d="M384 341 L384 384 L128 384 L128 341 L384 341 Z M299 213 L299 256 L128 256 L128 213 L299 213 Z M128 320 L128 277 L384 277 L384 320 L128 320 Z M427 469 Q444 469 456.5 456.5 Q469 444 469 427 L469 171 Q469 154 456.5 141 Q444 128 427 128 L128 128 L43 43 L43 427 Q43 444 55.5 456.5 Q68 469 85 469 L427 469 Z " />
<glyph glyph-name="uniE0B8" unicode="&#xe0b8;" horiz-adv-x="512" d="M149 363 L448 363 L448 320 L149 320 L149 363 Z M64 149 L64 192 L363 192 L363 149 L64 149 Z M107 235 L107 277 L405 277 L405 235 L107 235 Z " />
<glyph glyph-name="uniE0B9" unicode="&#xe0b9;" horiz-adv-x="512" d="M384 341 L384 384 L128 384 L128 341 L384 341 Z M384 277 L384 320 L128 320 L128 277 L384 277 Z M384 213 L384 256 L128 256 L128 213 L384 213 Z M469 427 L469 43 L384 128 L85 128 Q68 128 55.5 141 Q43 154 43 171 L43 427 Q43 444 55.5 456.5 Q68 469 85 469 L427 469 Q444 469 456.5 456.5 Q469 444 469 427 Z " />
<glyph glyph-name="uniE0BA" unicode="&#xe0ba;" horiz-adv-x="512" d="M363 149 L363 181 Q363 205 326.5 220 Q290 235 256 235 Q222 235 185.5 220 Q149 205 149 181 L149 149 L363 149 Z M290 354 Q276 368 256 368 Q236 368 222 354 Q208 340 208 320 Q208 300 222 286 Q236 272 256 272 Q276 272 290 286 Q304 300 304 320 Q304 340 290 354 Z M427 427 Q444 427 456.5 414 Q469 401 469 384 L469 128 Q469 111 456.5 98 Q444 85 427 85 L85 85 Q68 85 55.5 98 Q43 111 43 128 L43 384 Q43 401 55.5 414 Q68 427 85 427 L427 427 Z M85 0 L85 43 L427 43 L427 0 L85 0 Z M427 512 L427 469 L85 469 L85 512 L427 512 Z " />
<glyph glyph-name="uniE0BB" unicode="&#xe0bb;" horiz-adv-x="512" d="M427 181 Q436 181 442 175 Q448 169 448 160 L448 85 Q448 76 442 70 Q436 64 427 64 Q277 64 170.5 170.5 Q64 277 64 427 Q64 436 70 442 Q76 448 85 448 L160 448 Q169 448 175 442 Q181 436 181 427 L181 426 Q181 385 193 351 Q197 338 188 329 L141 282 Q161 244 202.5 202.5 Q244 161 282 141 L329 188 Q336 195 344 195 Q347 195 351 193 Q387 181 427 181 Z M427 405 L427 427 L405 427 L405 405 L427 405 Z M384 448 L448 448 L448 384 L405 384 L405 341 L384 341 L384 448 Z M320 405 L320 341 L256 341 L256 363 L299 363 L299 384 L256 384 L256 448 L320 448 L320 427 L277 427 L277 405 L320 405 Z M363 448 L363 341 L341 341 L341 448 L363 448 Z " />
<glyph glyph-name="uniE0BC" unicode="&#xe0bc;" horiz-adv-x="512" d="M226 478 Q239 491 256 491 Q273 491 286 478 Q299 465 299 448 Q299 431 286 418 Q273 405 256 405 Q239 405 226 418 Q213 431 213 448 Q213 465 226 478 Z M226 350 Q239 363 256 363 Q273 363 286 350 Q299 337 299 320 Q299 303 286 290 Q273 277 256 277 Q239 277 226 290 Q213 303 213 320 Q213 337 226 350 Z M354 350 Q367 363 384 363 Q401 363 414 350 Q427 337 427 320 Q427 303 414 290 Q401 277 384 277 Q367 277 354 290 Q341 303 341 320 Q341 337 354 350 Z M354 222 Q367 235 384 235 Q401 235 414 222 Q427 209 427 192 Q427 175 414 162 Q401 149 384 149 Q367 149 354 162 Q341 175 341 192 Q341 209 354 222 Z M226 222 Q239 235 256 235 Q273 235 286 222 Q299 209 299 192 Q299 175 286 162 Q273 149 256 149 Q239 149 226 162 Q213 175 213 192 Q213 209 226 222 Z M414 418 Q401 405 384 405 Q367 405 354 418 Q341 431 341 448 Q341 465 354 478 Q367 491 384 491 Q401 491 414 478 Q427 465 427 448 Q427 431 414 418 Z M98 222 Q111 235 128 235 Q145 235 158 222 Q171 209 171 192 Q171 175 158 162 Q145 149 128 149 Q111 149 98 162 Q85 175 85 192 Q85 209 98 222 Z M98 350 Q111 363 128 363 Q145 363 158 350 Q171 337 171 320 Q171 303 158 290 Q145 277 128 277 Q111 277 98 290 Q85 303 85 320 Q85 337 98 350 Z M98 478 Q111 491 128 491 Q145 491 158 478 Q171 465 171 448 Q171 431 158 418 Q145 405 128 405 Q111 405 98 418 Q85 431 85 448 Q85 465 98 478 Z M226 94 Q239 107 256 107 Q273 107 286 94 Q299 81 299 64 Q299 47 286 34 Q273 21 256 21 Q239 21 226 34 Q213 47 213 64 Q213 81 226 94 Z " />
<glyph glyph-name="uniE0BE" unicode="&#xe0be;" horiz-adv-x="512" d="M427 341 L427 384 L256 277 L85 384 L85 341 L256 235 L427 341 Z M427 427 Q444 427 456.5 414 Q469 401 469 384 L469 128 Q469 111 456.5 98 Q444 85 427 85 L85 85 Q68 85 55.5 98 Q43 111 43 128 L43 384 Q43 401 55.5 414 Q68 427 85 427 L427 427 Z " />
<glyph glyph-name="uniE0BF" unicode="&#xe0bf;" horiz-adv-x="512" d="M363 256 Q363 247 356.5 241 Q350 235 341 235 L128 235 L43 149 L43 448 Q43 457 49 463 Q55 469 64 469 L341 469 Q350 469 356.5 463 Q363 457 363 448 L363 256 Z M448 384 Q457 384 463 378 Q469 372 469 363 L469 43 L384 128 L149 128 Q140 128 134 134 Q128 140 128 149 L128 192 L405 192 L405 384 L448 384 Z " />
<glyph glyph-name="uniE0C3" unicode="&#xe0c3;" horiz-adv-x="512" d="M341 149 L405 149 L320 64 L235 149 L299 149 L299 299 L341 299 L341 149 Z M192 448 L277 363 L213 363 L213 213 L171 213 L171 363 L107 363 L192 448 Z " />
<glyph glyph-name="uniE0C4" unicode="&#xe0c4;" horiz-adv-x="512" d="M256 403 L207 355 L177 385 L256 464 L377 343 Q415 305 424 251.5 Q433 198 411 151 L256 305 L256 403 Z M256 94 L256 197 L154 299 Q128 265 128 222 Q128 200 139 174 Q150 148 166 132 Q204 94 256 94 Z M441 67 L448 59 L421 32 L363 90 Q316 52 256 52 Q227 52 191.5 66.5 Q156 81 135 102 Q114 123 99.5 158 Q85 193 85 222 Q85 247 96 279 Q107 311 123 330 L64 389 L91 416 Q390 117 441 67 Z " />
<glyph glyph-name="uniE0C6" unicode="&#xe0c6;" horiz-adv-x="512" d="M321 293 Q341 313 341 341 Q341 376 316 401.5 Q291 427 256 427 Q221 427 196 401.5 Q171 376 171 341 L213 341 Q213 358 226 371 Q239 384 256 384 Q273 384 286 371 Q299 358 299 341 Q299 324 286 311 L260 284 Q235 257 235 224 L235 213 L277 213 Q277 247 302 274 L321 293 Z M277 128 L277 171 L235 171 L235 128 L277 128 Z M405 469 Q422 469 435 456.5 Q448 444 448 427 L448 128 Q448 111 435 98 Q422 85 405 85 L320 85 L256 21 L192 85 L107 85 Q89 85 76.5 97.5 Q64 110 64 128 L64 427 Q64 445 76.5 457 Q89 469 107 469 L405 469 Z " />
<glyph glyph-name="uniE0C7" unicode="&#xe0c7;" horiz-adv-x="512" d="M250 267 Q359 159 427 91 L400 64 L328 135 Q312 111 294 88 Q276 65 266 54 L256 43 Q250 50 240 61.5 Q230 73 204 107.5 Q178 142 158.5 174.5 Q139 207 123 248 Q107 289 107 320 Q107 331 111 353 L43 421 L70 448 L248 270 L250 267 Z M256 373 Q233 373 217 355 L148 423 Q166 442 198 455.5 Q230 469 256 469 Q318 469 361.5 425.5 Q405 382 405 320 Q405 272 369 203 L292 281 Q309 296 309 320 Q309 342 293.5 357.5 Q278 373 256 373 Z " />
<glyph glyph-name="uniE0C8" unicode="&#xe0c8;" horiz-adv-x="512" d="M218.5 282.5 Q234 267 256 267 Q278 267 293.5 282.5 Q309 298 309 320 Q309 342 293.5 357.5 Q278 373 256 373 Q234 373 218.5 357.5 Q203 342 203 320 Q203 298 218.5 282.5 Z M150.5 425.5 Q194 469 256 469 Q318 469 361.5 425.5 Q405 382 405 320 Q405 289 389.5 249 Q374 209 352 174 Q330 139 308.5 108.5 Q287 78 272 60 L256 43 Q250 50 240 61.5 Q230 73 204 107.5 Q178 142 158.5 174.5 Q139 207 123 248 Q107 289 107 320 Q107 382 150.5 425.5 Z " />
<glyph glyph-name="uniE0C9" unicode="&#xe0c9;" horiz-adv-x="512" d="M384 341 L384 384 L128 384 L128 341 L384 341 Z M384 277 L384 320 L128 320 L128 277 L384 277 Z M384 213 L384 256 L128 256 L128 213 L384 213 Z M427 469 Q444 469 456.5 456.5 Q469 444 469 427 L469 171 Q469 154 456.5 141 Q444 128 427 128 L128 128 L43 43 L43 427 Q43 444 55.5 456.5 Q68 469 85 469 L427 469 Z " />
<glyph glyph-name="uniE0CA" unicode="&#xe0ca;" horiz-adv-x="512" d="M427 469 Q444 469 456.5 456.5 Q469 444 469 427 L469 171 Q469 154 456.5 141 Q444 128 427 128 L128 128 L43 43 L43 427 Q43 444 55.5 456.5 Q68 469 85 469 L427 469 Z " />
<glyph glyph-name="uniE0CB" unicode="&#xe0cb;" horiz-adv-x="512" d="M427 171 L427 427 L85 427 L85 128 L128 171 L427 171 Z M427 469 Q444 469 456.5 456.5 Q469 444 469 427 L469 171 Q469 154 456.5 141 Q444 128 427 128 L128 128 L43 43 L43 427 Q43 444 55.5 456.5 Q68 469 85 469 L427 469 Z " />
<glyph glyph-name="uniE0CC" unicode="&#xe0cc;" horiz-adv-x="512" d="M78 429 L451 57 L423 29 L383 70 Q371 64 363 64 L149 64 Q132 64 119.5 77 Q107 90 107 107 L107 346 L51 402 L78 429 Z M405 405 L405 156 L163 398 L213 448 L363 448 Q380 448 392.5 435 Q405 422 405 405 Z " />
<glyph glyph-name="uniE0CD" unicode="&#xe0cd;" horiz-adv-x="512" d="M141 282 Q189 189 282 141 L329 188 Q339 198 351 193 Q387 181 427 181 Q436 181 442 175 Q448 169 448 160 L448 85 Q448 76 442 70 Q436 64 427 64 Q277 64 170.5 170.5 Q64 277 64 427 Q64 436 70 442 Q76 448 85 448 L160 448 Q169 448 175 442 Q181 436 181 427 Q181 387 193 351 Q197 338 188 329 L141 282 Z " />
<glyph glyph-name="uniE0CE" unicode="&#xe0ce;" horiz-adv-x="512" d="M70 459 L91 437 L448 80 L421 53 L261 214 L260 214 L256 213 Q239 213 226 226 Q213 239 213 256 L214 260 L180 294 Q171 276 171 256 Q171 207 213 182 L192 145 Q163 162 145.5 191.5 Q128 221 128 256 Q128 294 148 325 L118 356 Q85 310 85 256 Q85 210 108 170.5 Q131 131 170 108 L149 71 Q100 99 71.5 148.5 Q43 198 43 256 Q43 330 87 387 L43 432 L70 459 Z M256 427 Q213 427 176 407 L145 438 Q195 469 256 469 Q344 469 406.5 406.5 Q469 344 469 256 Q469 196 438 145 L406 176 Q427 215 427 256 Q427 326 376.5 376.5 Q326 427 256 427 Z M375 208 L340 243 Q341 247 341 256 Q341 291 316 316 Q291 341 256 341 Q247 341 243 340 L208 375 Q230 384 256 384 Q309 384 346.5 346.5 Q384 309 384 256 Q384 230 375 208 Z " />
<glyph glyph-name="uniE0CF" unicode="&#xe0cf;" horiz-adv-x="512" d="M381 213 Q373 234 373 256 Q373 278 381 299 L416 299 L448 341 L406 384 Q388 370 370.5 345 Q353 320 347 299 Q341 278 341 256 Q341 234 347 213 Q353 192 370.5 167 Q388 142 406 128 L448 171 L416 213 L381 213 Z M299 128 L299 149 Q299 178 255 196.5 Q211 215 171 215 Q131 215 87 196.5 Q43 178 43 149 L43 128 L299 128 Z M216 365 Q197 384 171 384 Q145 384 126 365 Q107 346 107 320 Q107 294 126 275 Q145 256 171 256 Q197 256 216 275 Q235 294 235 320 Q235 346 216 365 Z M469 448 Q486 448 499 435 Q512 422 512 405 L512 107 Q512 90 499 77 Q486 64 469 64 L43 64 Q26 64 13 77 Q0 90 0 107 L0 405 Q0 422 13 435 Q26 448 43 448 L469 448 Z " />
<glyph glyph-name="uniE0D0" unicode="&#xe0d0;" horiz-adv-x="512" d="M469 256 L469 384 L299 384 L299 256 L469 256 Z M299 128 L299 149 Q299 178 255 196.5 Q211 215 171 215 Q131 215 87 196.5 Q43 178 43 149 L43 128 L299 128 Z M216 365 Q197 384 171 384 Q145 384 126 365 Q107 346 107 320 Q107 294 126 275 Q145 256 171 256 Q197 256 216 275 Q235 294 235 320 Q235 346 216 365 Z M469 448 Q486 448 499 435 Q512 422 512 405 L512 107 Q512 90 499 77 Q486 64 469 64 L43 64 Q26 64 13 77 Q0 90 0 107 L0 405 Q0 422 13 435 Q26 448 43 448 L469 448 Z M448 341 L384 299 L320 341 L320 363 L384 320 L448 363 L448 341 Z " />
<glyph glyph-name="uniE0D1" unicode="&#xe0d1;" horiz-adv-x="512" d="M137 303 Q63 377 61 378 L91 409 L167 333 L137 303 Z M277 469 L277 363 L235 363 L235 469 L277 469 Z M451 378 L375 303 L345 333 L421 409 L451 378 Z M506 156 Q512 150 512 141 Q512 132 506 126 L453 73 Q447 67 438 67 Q429 67 423 73 Q395 99 366 113 Q354 118 354 132 L354 198 Q308 213 256 213 Q204 213 158 198 L158 132 Q158 117 146 112 Q114 97 89 73 Q83 67 74 67 Q65 67 59 73 L6 126 Q0 132 0 141 Q0 150 6 156 Q111 256 256 256 Q316 256 389 226.5 Q462 197 506 156 Z " />
<glyph glyph-name="uniE0D2" unicode="&#xe0d2;" horiz-adv-x="512" d="M320 85 L320 256 L192 256 L192 85 L320 85 Z M317 298 Q327 298 334 291 Q341 284 341 274 L341 67 Q341 57 334 50 Q327 43 317 43 L195 43 Q185 43 178 50 Q171 57 171 67 L171 274 Q171 284 178 291.5 Q185 299 195 299 L317 298 Z M256 491 Q296 491 344 471 Q392 451 421 422 L391 392 Q335 448 256 448 Q177 448 121 392 L91 422 Q160 491 256 491 Z M149 361 Q193 405 256 405 Q319 405 363 361 L332 331 Q301 362 256 362 Q211 362 180 331 L149 361 Z " />
<glyph glyph-name="uniE0D3" unicode="&#xe0d3;" horiz-adv-x="512" d="M405 363 L107 363 L107 149 L405 149 L405 363 Z M22 363 Q22 380 34.5 392.5 Q47 405 64 405 L448 405 Q465 405 478 392.5 Q491 380 491 363 L491 149 Q491 132 478 119.5 Q465 107 448 107 L64 107 Q47 107 34 119.5 Q21 132 21 149 L22 363 Z " />
<glyph glyph-name="uniE0D4" unicode="&#xe0d4;" horiz-adv-x="512" d="M363 107 L363 405 L149 405 L149 107 L363 107 Z M363 490 Q380 490 392.5 477.5 Q405 465 405 448 L405 64 Q405 47 392.5 34 Q380 21 363 21 L149 21 Q132 21 119.5 34 Q107 47 107 64 L107 448 Q107 465 119.5 478 Q132 491 149 491 L363 490 Z " />
<glyph glyph-name="uniE0D5" unicode="&#xe0d5;" horiz-adv-x="512" d="M405 363 L107 363 L107 149 L405 149 L405 363 Z M22 363 Q22 380 34.5 392.5 Q47 405 64 405 L448 405 Q465 405 478 392.5 Q491 380 491 363 L491 149 Q491 132 478 119.5 Q465 107 448 107 L64 107 Q47 107 34 119.5 Q21 132 21 149 L22 363 Z " />
<glyph glyph-name="uniE0D6" unicode="&#xe0d6;" horiz-adv-x="512" d="M363 107 L363 405 L149 405 L149 107 L363 107 Z M363 490 Q380 490 392.5 477.5 Q405 465 405 448 L405 64 Q405 47 392.5 34 Q380 21 363 21 L149 21 Q132 21 119.5 34 Q107 47 107 64 L107 448 Q107 465 119.5 478 Q132 491 149 491 L363 490 Z " />
<glyph glyph-name="uniE0D7" unicode="&#xe0d7;" horiz-adv-x="512" d="M384 427 L469 341 L405 341 L405 192 Q405 157 380 132 Q355 107 320 107 Q285 107 260 132 Q235 157 235 192 L235 341 Q235 358 222 371 Q209 384 192 384 Q175 384 162 371 Q149 358 149 341 L149 192 L213 192 L128 107 L43 192 L107 192 L107 341 Q107 376 132 401.5 Q157 427 192 427 Q227 427 252 401.5 Q277 376 277 341 L277 192 Q277 175 290 162 Q303 149 320 149 Q337 149 350 162 Q363 175 363 192 L363 341 L299 341 L384 427 Z " />
<glyph glyph-name="uniE0D8" unicode="&#xe0d8;" horiz-adv-x="512" d="M363 277 L363 320 L320 320 L320 277 L363 277 Z M277 277 L277 320 L235 320 L235 277 L277 277 Z M192 277 L192 320 L149 320 L149 277 L192 277 Z M427 469 Q444 469 456.5 456.5 Q469 444 469 427 L469 171 Q469 154 456.5 141 Q444 128 427 128 L128 128 L43 43 L43 427 Q43 444 55.5 456.5 Q68 469 85 469 L427 469 Z " />
<glyph glyph-name="uniE0D9" unicode="&#xe0d9;" horiz-adv-x="512" d="M342 214 Q364 192 395 192 Q426 192 447.5 214 Q469 236 469 267 Q469 298 447.5 319.5 Q426 341 395 341 Q364 341 342 319.5 Q320 298 320 267 Q320 236 342 214 Z M64.5 214 Q86 192 117 192 Q148 192 170 214 Q192 236 192 267 Q192 298 170 319.5 Q148 341 117 341 Q86 341 64.5 319.5 Q43 298 43 267 Q43 236 64.5 214 Z M311.5 350 Q346 384 395 384 Q444 384 478 350 Q512 316 512 267 Q512 218 478 183.5 Q444 149 395 149 L117 149 Q68 149 34 183.5 Q0 218 0 267 Q0 316 34 350 Q68 384 117 384 Q166 384 200.5 350 Q235 316 235 267 Q235 224 208 192 L304 192 Q277 224 277 267 Q277 316 311.5 350 Z " />
<glyph glyph-name="uniE0DA" unicode="&#xe0da;" horiz-adv-x="512" d="M119.5 226 Q132 213 149 213 Q166 213 179 226 Q192 239 192 256 Q192 273 179 286 Q166 299 149 299 Q132 299 119.5 286 Q107 273 107 256 Q107 239 119.5 226 Z M270 299 L491 299 L491 213 L448 213 L448 128 L363 128 L363 213 L270 213 Q257 178 221.5 153 Q186 128 149 128 Q96 128 58.5 165.5 Q21 203 21 256 Q21 309 58.5 346.5 Q96 384 149 384 Q186 384 221.5 359 Q257 334 270 299 Z " />
<glyph glyph-name="uniE0DB" unicode="&#xe0db;" horiz-adv-x="512" d="M405 491 Q422 491 435 478 Q448 465 448 448 L448 64 Q448 47 435 34 Q422 21 405 21 L192 21 Q175 21 162 34 Q149 47 149 64 L149 128 L192 128 L192 85 L405 85 L405 427 L192 427 L192 384 L149 384 L149 448 Q149 465 162 478 Q175 491 192 491 L405 491 Z M277 337 L192 252 L277 166 L256 145 L171 230 L85 145 L64 166 L149 252 L64 337 L85 358 L171 273 L256 358 L277 337 Z " />
<glyph glyph-name="uniE0DC" unicode="&#xe0dc;" horiz-adv-x="512" d="M203 277 L203 309 Q203 321 193.5 329 Q184 337 171 337 Q158 337 148.5 329 Q139 321 139 309 L139 277 L203 277 Z M230 277 Q240 277 248 269 Q256 261 256 250 L256 175 Q256 165 247.5 157 Q239 149 228 149 L111 149 Q101 149 93 157.5 Q85 166 85 177 L85 252 Q85 262 93 269.5 Q101 277 111 277 L111 309 Q111 331 129.5 347 Q148 363 171 363 Q194 363 212 347 Q230 331 230 309 L230 277 Z M405 491 Q422 491 435 478 Q448 465 448 448 L448 64 Q448 47 435 34 Q422 21 405 21 L192 21 Q175 21 162 34 Q149 47 149 64 L149 128 L192 128 L192 85 L405 85 L405 427 L192 427 L192 384 L149 384 L149 448 Q149 465 162 478 Q175 491 192 491 L405 491 Z " />
<glyph glyph-name="uniE0DD" unicode="&#xe0dd;" horiz-adv-x="512" d="M299 85 L299 427 L85 427 L85 85 L299 85 Z M299 491 Q316 491 328.5 478 Q341 465 341 448 L341 64 Q341 47 328.5 34 Q316 21 299 21 L85 21 Q68 21 55.5 34 Q43 47 43 64 L43 448 Q43 465 55.5 478 Q68 491 85 491 L299 491 Z M384 303 Q404 282 404 256 Q404 230 384 211 L363 233 Q381 258 363 282 L384 303 Z M429 348 Q469 310 469 256.5 Q469 203 429 166 L407 188 Q436 219 436 258.5 Q436 298 407 326 L429 348 Z " />
<glyph glyph-name="uniE0DE" unicode="&#xe0de;" horiz-adv-x="512" d="M384 490 Q401 490 414 477.5 Q427 465 427 448 L427 64 Q427 47 414 34 Q401 21 384 21 L171 21 Q154 21 141 34 Q128 47 128 64 L128 128 L171 128 L171 107 L384 107 L384 405 L171 405 L171 384 L128 384 L128 448 Q128 465 141 478 Q154 491 171 491 L384 490 Z M122 229.5 Q133 219 149 219 Q165 219 176.5 229.5 Q188 240 188 256 Q188 272 176.5 282.5 Q165 293 149 293 Q133 293 122 282.5 Q111 272 111 256 Q111 240 122 229.5 Z M231 246 L254 228 Q258 224 256 221 L234 184 Q232 180 227 182 L200 192 Q192 187 181 182 L177 154 Q177 149 172 149 L128 149 Q122 149 122 154 L118 182 Q107 187 99 192 L72 182 Q67 180 65 184 L44 221 Q43 222 43.5 224.5 Q44 227 45 228 L68 246 Q68 247 67.5 250.5 Q67 254 67 256 Q67 258 67.5 261 Q68 264 68 266 L45 284 Q42 287 43 291 L65 328 Q67 332 72 330 L99 320 Q107 325 118 330 L122 358 Q122 363 127 363 L171 363 Q176 363 176 358 L181 330 Q185 328 199 319 L227 330 Q231 332 233 328 L255 291 Q256 290 255.5 287.5 Q255 285 254 284 L231 266 Q231 265 231.5 261.5 Q232 258 232 256 Q232 254 231.5 250.5 Q231 247 231 246 Z " />
<glyph glyph-name="uniE0DF" unicode="&#xe0df;" horiz-adv-x="512" d="M213 256 L171 256 L256 341 L341 256 L299 256 L299 171 L213 171 L213 256 Z M448 106 L448 406 L64 406 L64 106 L448 106 Z M448 448 Q466 448 478.5 435.5 Q491 423 491 405 L491 107 Q491 89 478.5 76.5 Q466 64 448 64 L64 64 Q46 64 33.5 76.5 Q21 89 21 107 L21 405 Q21 423 33.5 435.5 Q46 448 64 448 L448 448 Z " />
<glyph glyph-name="uniE0E0" unicode="&#xe0e0;" horiz-adv-x="512" d="M448 117 L448 363 Q415 373 373 373 Q308 373 256 341 L256 96 Q308 128 373 128 Q412 128 448 117 Z M373 416 Q449 416 491 384 L491 73 Q491 69 487.5 65.5 Q484 62 480 62 Q477 62 475 63 Q434 85 373 85 Q308 85 256 53 Q213 85 139 85 Q85 85 37 62 Q36 62 34.5 61.5 Q33 61 32 61 Q28 61 24.5 64 Q21 67 21 71 L21 384 Q64 416 139 416 Q213 416 256 384 Q299 416 373 416 Z " />
<glyph glyph-name="uniE0E1" unicode="&#xe0e1;" horiz-adv-x="512" d="M256 277 L427 384 L85 384 L256 277 Z M427 128 L427 341 L256 235 L85 341 L85 128 L427 128 Z M427 427 Q444 427 456.5 414 Q469 401 469 384 L469 128 Q469 111 456.5 98 Q444 85 427 85 L85 85 Q68 85 55.5 98 Q43 111 43 128 L43 384 Q43 401 55.5 414 Q68 427 85 427 L427 427 Z " />
<glyph glyph-name="uniE0E2" unicode="&#xe0e2;" horiz-adv-x="512" d="M277 203 L363 283 L277 363 L277 317 Q172 302 149 192 Q192 250 277 250 L277 203 Z M427 128 L512 128 L512 85 L0 85 L0 128 L85 128 Q67 128 55 140.5 Q43 153 43 171 L43 384 Q43 402 55 414.5 Q67 427 85 427 L427 427 Q445 427 457 414.5 Q469 402 469 384 L469 171 Q469 154 456.5 141 Q444 128 427 128 Z " />
<glyph glyph-name="uniE0E3" unicode="&#xe0e3;" horiz-adv-x="512" d="M149 192 Q178 232 227 244 L193 278 Q161 247 149 192 Z M51 475 L472 54 L445 27 L387 85 L0 85 L0 128 L85 128 Q67 128 55 140 Q43 152 43 170 L43 384 Q43 403 57 415 L24 448 L51 475 Z M469 170 Q469 145 447 133 L329 251 L363 283 L277 362 L277 317 Q275 316 271.5 316 Q268 316 266 315 L154 426 L427 426 Q445 426 457 414 Q469 402 469 384 L469 170 Z M453 128 L512 128 L512 85 L495 85 L453 128 Z " />
<glyph glyph-name="uniE0E4" unicode="&#xe0e4;" horiz-adv-x="512" d="M64 333 L94 363 L256 201 L375 320 L277 320 L277 363 L448 363 L448 192 L405 192 L405 290 L256 141 L64 333 Z " />
<glyph glyph-name="uniE0E5" unicode="&#xe0e5;" horiz-adv-x="512" d="M85 297 Q173 297 235 235 Q297 173 297 85 L236 85 Q236 147 191.5 191.5 Q147 236 85 236 L85 297 Z M85 417 Q222 417 319.5 319.5 Q417 222 417 85 L357 85 Q357 198 277.5 277.5 Q198 357 85 357 L85 417 Z M85 132 Q85 151 98.5 164.5 Q112 178 132 178 Q152 178 165 165 Q178 152 178 132 Q178 112 164.5 98.5 Q151 85 132 85 Q112 85 98.5 98.5 Q85 112 85 132 Z " />
<glyph glyph-name="uniE0E6" unicode="&#xe0e6;" horiz-adv-x="512" d="M211 211 Q230 192 256 192 Q282 192 301 211 Q320 230 320 256 Q320 282 301 301 Q282 320 256 320 Q230 320 211 301 Q192 282 192 256 Q192 230 211 211 Z M105.5 406.5 Q168 469 256 469 Q344 469 406.5 406.5 Q469 344 469 256 L469 225 Q469 193 447.5 171 Q426 149 395 149 Q356 149 332 181 Q300 149 256 149 Q212 149 180.5 180.5 Q149 212 149 256 Q149 300 180.5 331.5 Q212 363 256 363 Q300 363 331.5 331.5 Q363 300 363 256 L363 225 Q363 212 372.5 202 Q382 192 395 192 Q408 192 417.5 202 Q427 212 427 225 L427 256 Q427 326 376.5 376.5 Q326 427 256 427 Q186 427 135.5 376.5 Q85 326 85 256 Q85 186 135.5 135.5 Q186 85 256 85 L363 85 L363 43 L256 43 Q168 43 105.5 105.5 Q43 168 43 256 Q43 344 105.5 406.5 Z " />
<glyph glyph-name="uniE0E7" unicode="&#xe0e7;" horiz-adv-x="512" d="M273 230 Q206 230 171 183 Q191 273 273 284 L273 320 L341 256 L273 193 L273 230 Z M363 107 L363 405 L149 405 L149 107 L363 107 Z M363 490 Q380 490 392.5 477.5 Q405 465 405 448 L405 64 Q405 47 392.5 34 Q380 21 363 21 L149 21 Q132 21 119.5 34 Q107 47 107 64 L107 448 Q107 465 119.5 478 Q132 491 149 491 L363 490 Z " />
<glyph glyph-name="uniE0E8" unicode="&#xe0e8;" horiz-adv-x="512" d="M448 384 L448 341 L384 341 L384 277 L341 277 L341 341 L277 341 L277 384 L341 384 L341 448 L384 448 L384 384 L448 384 Z M427 181 Q436 181 442 175 Q448 169 448 160 L448 85 Q448 76 442 70 Q436 64 427 64 Q277 64 170.5 170.5 Q64 277 64 427 Q64 436 70 442 Q76 448 85 448 L160 448 Q169 448 175 442 Q181 436 181 427 Q181 387 193 351 Q197 338 188 329 L141 282 Q188 190 282 141 L329 188 Q338 197 351 193 Q387 181 427 181 Z " />
<glyph glyph-name="uniE0E9" unicode="&#xe0e9;" horiz-adv-x="512" d="M311 341 L341 311 L286 256 L341 201 L311 171 L256 226 L201 171 L171 201 L226 256 L171 311 L201 341 L256 286 L311 341 Z M448 448 Q465 448 478 435 Q491 422 491 405 L491 107 Q491 90 478 77 Q465 64 448 64 L64 64 Q47 64 34 77 Q21 90 21 107 L21 405 Q21 422 34 435 Q47 448 64 448 L448 448 Z M448 105 L448 405 L64 405 L64 105 L448 105 Z " />
<glyph glyph-name="uniE0EA" unicode="&#xe0ea;" horiz-adv-x="512" d="M277 341 L320 341 L320 171 L277 171 L277 341 Z M192 341 L235 341 L235 171 L192 171 L192 341 Z M448 448 Q465 448 478 435 Q491 422 491 405 L491 107 Q491 90 478 77 Q465 64 448 64 L64 64 Q47 64 34 77 Q21 90 21 107 L21 405 Q21 422 34 435 Q47 448 64 448 L448 448 Z M448 105 L448 405 L64 405 L64 105 L448 105 Z " />
<glyph glyph-name="uniE0EB" unicode="&#xe0eb;" horiz-adv-x="512" d="M256 288 L405 363 L405 405 L256 331 L107 405 L107 363 L256 288 Z M289 149 L107 149 Q90 149 77 162 Q64 175 64 192 L64 405 Q64 422 77 435 Q90 448 107 448 L405 448 Q422 448 435 435 Q448 422 448 405 L448 252 Q421 267 395 267 Q351 267 319.5 235.5 Q288 204 288 160 Q288 158 288.5 154.5 Q289 151 289 149 Z M437 149 L437 171 L352 171 L352 149 L437 149 Z M342 213 Q364 235 395 235 Q426 235 447.5 213 Q469 191 469 160 Q469 129 447.5 107 Q426 85 395 85 Q364 85 342 107 Q320 129 320 160 Q320 191 342 213 Z " />
<glyph glyph-name="uniE0EC" unicode="&#xe0ec;" horiz-adv-x="512" d="M139 331 Q155 347 183.5 358.5 Q212 370 235 370 Q258 370 286.5 358.5 Q315 347 331 331 L303 303 Q274 332 234 332 Q194 332 166 303 L139 331 Z M193 276 Q210 293 235 293 Q259 293 276 276 L235 235 L193 276 Z M84 385 Q146 447 235 447 Q324 447 386 385 L358 358 Q307 409 234.5 409 Q162 409 111 358 L84 385 Z M469 43 L128 43 L469 384 L469 43 Z " />
<glyph glyph-name="uniE0ED" unicode="&#xe0ed;" horiz-adv-x="512" d="M322.5 159.5 Q293 139 256 139 Q219 139 189.5 159.5 Q160 180 147 213 L182 213 Q207 171 256 171 Q305 171 330 213 L365 213 Q352 180 322.5 159.5 Z M135.5 135.5 Q186 85 256 85 Q326 85 376.5 135.5 Q427 186 427 256 Q427 326 376.5 376.5 Q326 427 256 427 Q186 427 135.5 376.5 Q85 326 85 256 Q85 186 135.5 135.5 Z M105.5 406.5 Q168 469 256 469 Q344 469 406.5 406.5 Q469 344 469 256 Q469 168 406.5 105.5 Q344 43 256 43 Q168 43 105.5 105.5 Q43 168 43 256 Q43 344 105.5 406.5 Z M203.5 286.5 Q194 277 181 277 Q168 277 158.5 286.5 Q149 296 149 309 Q149 322 158.5 331.5 Q168 341 181 341 Q194 341 203.5 331.5 Q213 322 213 309 Q213 296 203.5 286.5 Z M353.5 286.5 Q344 277 331 277 Q318 277 308.5 286.5 Q299 296 299 309 Q299 322 308.5 331.5 Q318 341 331 341 Q344 341 353.5 331.5 Q363 322 363 309 Q363 296 353.5 286.5 Z " />
<glyph glyph-name="uniE0EE" unicode="&#xe0ee;" horiz-adv-x="512" d="M149 192 L192 192 L192 149 L149 149 L149 192 Z M149 277 L192 277 L192 235 L149 235 L149 277 Z M149 363 L192 363 L192 320 L149 320 L149 363 Z M235 192 L363 192 L363 149 L235 149 L235 192 Z M235 277 L363 277 L363 235 L235 235 L235 277 Z M235 363 L363 363 L363 320 L235 320 L235 363 Z M429 448 Q436 448 442 442.5 Q448 437 448 429 L448 83 Q448 76 442 70 Q436 64 429 64 L83 64 Q75 64 69.5 70 Q64 76 64 83 L64 429 Q64 448 83 448 L429 448 Z M405 405 L107 405 L107 107 L405 107 L405 405 Z " />
<glyph glyph-name="uniE0EF" unicode="&#xe0ef;" horiz-adv-x="512" d="M256 107 L341 107 L299 149 L256 149 L256 107 Z M213 192 L213 235 L171 235 L171 192 L213 192 Z M213 107 L213 149 L171 149 L171 107 L213 107 Z M128 277 L128 320 L85 320 L85 277 L128 277 Z M128 192 L128 235 L85 235 L85 192 L128 192 Z M128 107 L128 149 L85 149 L85 107 L128 107 Z M28 474 L476 28 L448 0 L384 64 L43 64 L43 405 L2 446 L28 474 Z M341 277 L384 277 L384 235 L341 235 L341 277 Z M171 405 L171 386 L109 448 L256 448 L256 363 L469 363 L469 87 L427 130 L427 320 L256 320 L256 301 L194 363 L213 363 L213 405 L171 405 Z " />
<glyph glyph-name="uniE0F0" unicode="&#xe0f0;" horiz-adv-x="512" d="M150.5 425.5 Q194 469 256 469 Q318 469 361.5 425.5 Q405 382 405 320 Q405 245 341 198 L341 149 Q341 140 335 134 Q329 128 320 128 L192 128 Q183 128 177 134 Q171 140 171 149 L171 198 Q107 242 107 320 Q107 382 150.5 425.5 Z M192 64 L192 85 L320 85 L320 64 Q320 55 314 49 Q308 43 299 43 L213 43 Q204 43 198 49 Q192 55 192 64 Z " />
<glyph glyph-name="uniE145" unicode="&#xe145;" horiz-adv-x="512" d="M405 235 L277 235 L277 107 L235 107 L235 235 L107 235 L107 277 L235 277 L235 405 L277 405 L277 277 L405 277 L405 235 Z " />
<glyph glyph-name="uniE146" unicode="&#xe146;" horiz-adv-x="512" d="M363 235 L363 277 L277 277 L277 363 L235 363 L235 277 L149 277 L149 235 L235 235 L235 149 L277 149 L277 235 L363 235 Z M405 448 Q422 448 435 435 Q448 422 448 405 L448 107 Q448 90 435 77 Q422 64 405 64 L107 64 Q89 64 76.5 76.5 Q64 89 64 107 L64 405 Q64 423 76.5 435.5 Q89 448 107 448 L405 448 Z " />
<glyph glyph-name="uniE147" unicode="&#xe147;" horiz-adv-x="512" d="M363 235 L363 277 L277 277 L277 363 L235 363 L235 277 L149 277 L149 235 L235 235 L235 149 L277 149 L277 235 L363 235 Z M105.5 406.5 Q168 469 256 469 Q344 469 406.5 406.5 Q469 344 469 256 Q469 168 406.5 105.5 Q344 43 256 43 Q168 43 105.5 105.5 Q43 168 43 256 Q43 344 105.5 406.5 Z " />
<glyph glyph-name="uniE148" unicode="&#xe148;" horiz-adv-x="512" d="M135.5 135.5 Q186 85 256 85 Q326 85 376.5 135.5 Q427 186 427 256 Q427 326 376.5 376.5 Q326 427 256 427 Q186 427 135.5 376.5 Q85 326 85 256 Q85 186 135.5 135.5 Z M105.5 406.5 Q168 469 256 469 Q344 469 406.5 406.5 Q469 344 469 256 Q469 168 406.5 105.5 Q344 43 256 43 Q168 43 105.5 105.5 Q43 168 43 256 Q43 344 105.5 406.5 Z M277 363 L277 277 L363 277 L363 235 L277 235 L277 149 L235 149 L235 235 L149 235 L149 277 L235 277 L235 363 L277 363 Z " />
<glyph glyph-name="uniE149" unicode="&#xe149;" horiz-adv-x="512" d="M109 405 L403 405 L383 427 L127 427 L109 405 Z M256 139 L373 256 L299 256 L299 299 L213 299 L213 256 L139 256 L256 139 Z M438 400 Q448 388 448 373 L448 107 Q448 90 435 77 Q422 64 405 64 L107 64 Q90 64 77 77 Q64 90 64 107 L64 373 Q64 388 74 400 L103 436 Q113 448 128 448 L384 448 Q399 448 409 436 L438 400 Z " />
<glyph glyph-name="uniE14A" unicode="&#xe14a;" horiz-adv-x="512" d="M405 179 L329 256 L405 333 L375 363 L299 286 L222 363 L192 333 L269 256 L192 179 L222 149 L299 226 L375 149 L405 179 Z M469 448 Q486 448 499 435 Q512 422 512 405 L512 107 Q512 90 499 77 Q486 64 469 64 L149 64 Q129 64 115 83 L0 256 L115 429 Q129 448 149 448 L469 448 Z " />
<glyph glyph-name="uniE14B" unicode="&#xe14b;" horiz-adv-x="512" d="M256 85 Q326 85 376.5 135.5 Q427 186 427 256 Q427 280 416.5 311 Q406 342 391 361 L151 121 Q196 85 256 85 Z M85 256 Q85 232 95.5 201 Q106 170 121 151 L361 391 Q316 427 256 427 Q186 427 135.5 376.5 Q85 326 85 256 Z M105.5 406.5 Q168 469 256 469 Q344 469 406.5 406.5 Q469 344 469 256 Q469 168 406.5 105.5 Q344 43 256 43 Q168 43 105.5 105.5 Q43 168 43 256 Q43 344 105.5 406.5 Z " />
<glyph glyph-name="uniE14C" unicode="&#xe14c;" horiz-adv-x="512" d="M405 375 L286 256 L405 137 L375 107 L256 226 L137 107 L107 137 L226 256 L107 375 L137 405 L256 286 L375 405 L405 375 Z " />
<glyph glyph-name="uniE14D" unicode="&#xe14d;" horiz-adv-x="512" d="M405 64 L405 363 L171 363 L171 64 L405 64 Z M405 405 Q422 405 435 392.5 Q448 380 448 363 L448 64 Q448 47 435 34 Q422 21 405 21 L171 21 Q154 21 141 34 Q128 47 128 64 L128 363 Q128 380 141 392.5 Q154 405 171 405 L405 405 Z M341 491 L341 448 L85 448 L85 149 L43 149 L43 448 Q43 465 55.5 478 Q68 491 85 491 L341 491 Z " />
<glyph glyph-name="uniE14E" unicode="&#xe14e;" horiz-adv-x="512" d="M405 448 L469 448 L469 427 L320 277 L277 320 L405 448 Z M245 256 Q245 245 256 245 Q267 245 267 256 Q267 267 256 267 Q245 267 245 256 Z M98 97.5 Q111 85 128 85 Q145 85 158 97.5 Q171 110 171 128 Q171 146 158 158.5 Q145 171 128 171 Q111 171 98 158.5 Q85 146 85 128 Q85 110 98 97.5 Z M98 353.5 Q111 341 128 341 Q145 341 158 353.5 Q171 366 171 384 Q171 402 158 414.5 Q145 427 128 427 Q111 427 98 414.5 Q85 402 85 384 Q85 366 98 353.5 Z M206 349 L469 85 L469 64 L405 64 L256 213 L206 163 Q213 148 213 128 Q213 93 188 68 Q163 43 128 43 Q93 43 68 68 Q43 93 43 128 Q43 163 68 188 Q93 213 128 213 Q148 213 163 206 L213 256 L163 306 Q148 299 128 299 Q93 299 68 324 Q43 349 43 384 Q43 419 68 444 Q93 469 128 469 Q163 469 188 444 Q213 419 213 384 Q213 364 206 349 Z " />
<glyph glyph-name="uniE14F" unicode="&#xe14f;" horiz-adv-x="512" d="M405 85 L405 427 L363 427 L363 363 L149 363 L149 427 L107 427 L107 85 L405 85 Z M271 463 Q265 469 256 469 Q247 469 241 463 Q235 457 235 448 Q235 439 241 433 Q247 427 256 427 Q265 427 271 433 Q277 439 277 448 Q277 457 271 463 Z M405 469 Q422 469 435 456.5 Q448 444 448 427 L448 85 Q448 68 435 55.5 Q422 43 405 43 L107 43 Q90 43 77 55.5 Q64 68 64 85 L64 427 Q64 444 77 456.5 Q90 469 107 469 L196 469 Q203 488 219 500 Q235 512 256 512 Q277 512 293 500 Q309 488 316 469 L405 469 Z " />
<glyph glyph-name="uniE150" unicode="&#xe150;" horiz-adv-x="512" d="M442 362 L403 323 L323 403 L362 442 Q368 448 377 448 Q386 448 392 442 L442 392 Q448 386 448 377 Q448 368 442 362 Z M64 144 L300 380 L380 300 L144 64 L64 64 L64 144 Z " />
<glyph glyph-name="uniE151" unicode="&#xe151;" horiz-adv-x="512" d="M256 235 L432 345 L256 448 L80 345 L256 235 Z M469 341 L469 128 Q469 111 456.5 98 Q444 85 427 85 L85 85 Q68 85 55.5 98 Q43 111 43 128 L43 341 Q43 366 63 378 L256 491 L449 378 Q469 366 469 341 Z " />
<glyph glyph-name="uniE152" unicode="&#xe152;" horiz-adv-x="512" d="M128 235 L128 277 L384 277 L384 235 L128 235 Z M64 384 L448 384 L448 341 L64 341 L64 384 Z M213 128 L213 171 L299 171 L299 128 L213 128 Z " />
<glyph glyph-name="uniE153" unicode="&#xe153;" horiz-adv-x="512" d="M307 384 L427 384 L427 171 L277 171 L269 213 L149 213 L149 64 L107 64 L107 427 L299 427 L307 384 Z " />
<glyph glyph-name="uniE154" unicode="&#xe154;" horiz-adv-x="512" d="M256 341 L256 427 L427 256 L256 85 L256 171 L85 171 L85 341 L256 341 Z " />
<glyph glyph-name="uniE155" unicode="&#xe155;" horiz-adv-x="512" d="M296 116 Q310 116 324 134.5 Q338 153 342 191 Q312 183 296 164 Q280 145 280 132 Q280 125 285 120.5 Q290 116 296 116 Z M98 365 L61 401 Q71 413 79 421 Q106 448 137 448 Q156 448 173.5 433 Q191 418 191 387 Q191 357 163 317 Q135 278 124 242 Q118 225 120.5 213 Q123 201 131 201 Q140 201 155 219 Q177 241 204 277 Q252 337 309 337 Q351 337 371.5 309.5 Q392 282 395 248 L448 248 L448 195 L396 195 Q390 126 359 95 Q328 64 295 64 Q267 64 247 83.5 Q227 103 227 130 Q227 163 257 199 Q287 235 342 245 Q341 253 340.5 256 Q340 259 337.5 265.5 Q335 272 331.5 275 Q328 278 321 280.5 Q314 283 304 283 Q276 283 217 210 Q200 189 193.5 181.5 Q187 174 175 164 Q163 154 152 151 Q117 140 92 164 Q67 188 67 224 Q67 239 72.5 257 Q78 275 87 292 Q96 309 104 322.5 Q112 336 119.5 347 Q127 358 128 359 Q145 387 134 391 Q127 394 98 365 Z " />
<glyph glyph-name="uniE156" unicode="&#xe156;" horiz-adv-x="512" d="M405 192 L405 405 L106 405 L106 192 L192 192 Q192 166 211 147 Q230 128 256 128 Q282 128 301 147 Q320 166 320 192 L405 192 Z M405 448 Q423 448 435.5 435.5 Q448 423 448 405 L448 107 Q448 90 435 77 Q422 64 405 64 L106 64 Q88 64 76 76.5 Q64 89 64 107 L64 405 Q64 423 76 435.5 Q88 448 106 448 L405 448 Z " />
<glyph glyph-name="uniE157" unicode="&#xe157;" horiz-adv-x="512" d="M363 363 Q407 363 438 331.5 Q469 300 469 256 Q469 212 438 180.5 Q407 149 363 149 L277 149 L277 190 L363 190 Q390 190 409.5 209.5 Q429 229 429 256 Q429 283 409.5 302.5 Q390 322 363 322 L277 322 L277 363 L363 363 Z M171 235 L171 277 L341 277 L341 235 L171 235 Z M102.5 302.5 Q83 283 83 256 Q83 229 102.5 209.5 Q122 190 149 190 L235 190 L235 149 L149 149 Q105 149 74 180.5 Q43 212 43 256 Q43 300 74 331.5 Q105 363 149 363 L235 363 L235 322 L149 322 Q122 322 102.5 302.5 Z " />
<glyph glyph-name="uniE158" unicode="&#xe158;" horiz-adv-x="512" d="M427 341 L427 384 L256 277 L85 384 L85 341 L256 235 L427 341 Z M427 427 Q444 427 456.5 414 Q469 401 469 384 L469 128 Q469 111 456.5 98 Q444 85 427 85 L85 85 Q68 85 55.5 98 Q43 111 43 128 L43 384 Q43 401 55.5 414 Q68 427 85 427 L427 427 Z " />
<glyph glyph-name="uniE159" unicode="&#xe159;" horiz-adv-x="512" d="M427 341 L427 384 L256 277 L85 384 L85 341 L256 235 L427 341 Z M427 427 Q444 427 456.5 414 Q469 401 469 384 L469 128 Q469 111 456.5 98 Q444 85 427 85 L85 85 Q68 85 55.5 98 Q43 111 43 128 L43 384 Q43 401 55.5 414 Q68 427 85 427 L427 427 Z " />
<glyph glyph-name="uniE15A" unicode="&#xe15a;" horiz-adv-x="512" d="M393 286 L469 363 L469 171 L277 171 L355 248 Q307 288 245 288 Q194 288 146.5 254 Q99 220 83 171 L33 187 Q55 255 113.5 298 Q172 341 245 341 Q330 341 393 286 Z " />
<glyph glyph-name="uniE15B" unicode="&#xe15b;" horiz-adv-x="512" d="M405 235 L107 235 L107 277 L405 277 L405 235 Z " />
<glyph glyph-name="uniE15C" unicode="&#xe15c;" horiz-adv-x="512" d="M363 235 L363 277 L149 277 L149 235 L363 235 Z M105.5 406.5 Q168 469 256 469 Q344 469 406.5 406.5 Q469 344 469 256 Q469 168 406.5 105.5 Q344 43 256 43 Q168 43 105.5 105.5 Q43 168 43 256 Q43 344 105.5 406.5 Z " />
<glyph glyph-name="uniE15D" unicode="&#xe15d;" horiz-adv-x="512" d="M135.5 135.5 Q186 85 256 85 Q326 85 376.5 135.5 Q427 186 427 256 Q427 326 376.5 376.5 Q326 427 256 427 Q186 427 135.5 376.5 Q85 326 85 256 Q85 186 135.5 135.5 Z M105.5 406.5 Q168 469 256 469 Q344 469 406.5 406.5 Q469 344 469 256 Q469 168 406.5 105.5 Q344 43 256 43 Q168 43 105.5 105.5 Q43 168 43 256 Q43 344 105.5 406.5 Z M149 277 L363 277 L363 235 L149 235 L149 277 Z " />
<glyph glyph-name="uniE15E" unicode="&#xe15e;" horiz-adv-x="512" d="M213 320 Q317 305 373.5 240.5 Q430 176 448 85 Q371 194 213 194 L213 107 L64 256 L213 405 L213 320 Z " />
<glyph glyph-name="uniE15F" unicode="&#xe15f;" horiz-adv-x="512" d="M277 320 Q381 305 437.5 240.5 Q494 176 512 85 Q435 194 277 194 L277 107 L128 256 L277 405 L277 320 Z M149 341 L64 256 L149 171 L149 107 L0 256 L149 405 L149 341 Z " />
<glyph glyph-name="uniE160" unicode="&#xe160;" horiz-adv-x="512" d="M277 235 L277 363 L235 363 L235 235 L277 235 Z M236.5 151.5 Q245 143 256 143 Q267 143 275.5 151.5 Q284 160 284 171 Q284 182 275.5 190 Q267 198 256 198 Q245 198 236.5 190 Q228 182 228 171 Q228 160 236.5 151.5 Z M336 448 L448 336 L448 176 L336 64 L176 64 L64 176 L64 336 L176 448 L336 448 Z " />
<glyph glyph-name="uniE161" unicode="&#xe161;" horiz-adv-x="512" d="M320 320 L320 405 L107 405 L107 320 L320 320 Z M211 126 Q230 107 256 107 Q282 107 301 126 Q320 145 320 171 Q320 197 301 216 Q282 235 256 235 Q230 235 211 216 Q192 197 192 171 Q192 145 211 126 Z M363 448 L448 363 L448 107 Q448 90 435 77 Q422 64 405 64 L107 64 Q89 64 76.5 76.5 Q64 89 64 107 L64 405 Q64 423 76.5 435.5 Q89 448 107 448 L363 448 Z " />
<glyph glyph-name="uniE162" unicode="&#xe162;" horiz-adv-x="512" d="M192 320 L192 192 L320 192 L320 320 L192 320 Z M149 149 L149 363 L363 363 L363 149 L149 149 Z M320 405 L320 448 L363 448 L363 405 L320 405 Z M320 64 L320 107 L363 107 L363 64 L320 64 Z M405 149 L405 192 L448 192 L448 149 L405 149 Z M405 320 L405 363 L448 363 L448 320 L405 320 Z M405 64 L405 107 L448 107 Q448 90 435 77 Q422 64 405 64 Z M405 235 L405 277 L448 277 L448 235 L405 235 Z M235 64 L235 107 L277 107 L277 64 L235 64 Z M192 448 L192 405 L149 405 L149 448 L192 448 Z M64 149 L64 192 L107 192 L107 149 L64 149 Z M107 64 Q90 64 77 77 Q64 90 64 107 L107 107 L107 64 Z M405 448 Q422 448 435 435 Q448 422 448 405 L405 405 L405 448 Z M277 448 L277 405 L235 405 L235 448 L277 448 Z M64 320 L64 363 L107 363 L107 320 L64 320 Z M149 64 L149 107 L192 107 L192 64 L149 64 Z M64 235 L64 277 L107 277 L107 235 L64 235 Z M64 405 Q64 422 77 435 Q90 448 107 448 L107 405 L64 405 Z " />
<glyph glyph-name="uniE163" unicode="&#xe163;" horiz-adv-x="512" d="M43 64 L43 213 L363 256 L43 299 L43 448 L491 256 L43 64 Z " />
<glyph glyph-name="uniE164" unicode="&#xe164;" horiz-adv-x="512" d="M64 235 L64 277 L320 277 L320 235 L64 235 Z M64 384 L448 384 L448 341 L64 341 L64 384 Z M64 128 L64 171 L192 171 L192 128 L64 128 Z " />
<glyph glyph-name="uniE165" unicode="&#xe165;" horiz-adv-x="512" d="M256 384 L216 277 L296 277 L256 384 Z M203 239 L183 192 L139 192 L240 427 L272 427 L373 192 L329 192 L309 239 L203 239 Z M107 149 L405 149 L405 107 L107 107 L107 149 Z " />
<glyph glyph-name="uniE166" unicode="&#xe166;" horiz-adv-x="512" d="M267 341 Q340 341 398 298 Q456 255 479 187 L429 171 Q412 223 367.5 255.5 Q323 288 267 288 Q205 288 157 248 L235 171 L43 171 L43 363 L119 286 Q182 341 267 341 Z " />
<glyph glyph-name="uniE167" unicode="&#xe167;" horiz-adv-x="512" d="M340 117 L385 117 L276 395 L236 395 L127 117 L172 117 L196 181 L316 181 L340 117 Z M427 469 Q444 469 456.5 456.5 Q469 444 469 427 L469 85 Q469 68 456.5 55.5 Q444 43 427 43 L85 43 Q68 43 55.5 55.5 Q43 68 43 85 L43 427 Q43 444 55.5 456.5 Q68 469 85 469 L427 469 Z M212 224 L256 342 L300 224 L212 224 Z " />
<glyph glyph-name="uniE168" unicode="&#xe168;" horiz-adv-x="512" d="M341 299 L256 213 L171 299 L213 299 L213 363 L299 363 L299 299 L341 299 Z M405 192 L405 405 L106 405 L106 192 L192 192 Q192 166 211 147 Q230 128 256 128 Q282 128 301 147 Q320 166 320 192 L405 192 Z M405 448 Q422 448 435 435 Q448 422 448 405 L448 107 Q448 90 435 77 Q422 64 405 64 L106 64 Q88 64 76 76.5 Q64 89 64 107 L64 405 Q64 423 76 435.5 Q88 448 106 448 L405 448 Z " />
<glyph glyph-name="uniE169" unicode="&#xe169;" horiz-adv-x="512" d="M109 405 L403 405 L383 427 L127 427 L109 405 Z M256 309 L139 192 L213 192 L213 149 L299 149 L299 192 L373 192 L256 309 Z M438 401 Q448 389 448 373 L448 107 Q448 90 435 77 Q422 64 405 64 L107 64 Q89 64 76.5 76.5 Q64 89 64 107 L64 373 Q64 389 74 401 L103 436 Q113 448 128 448 L384 448 Q399 448 409 436 L438 401 Z " />
<glyph glyph-name="uniE16A" unicode="&#xe16a;" horiz-adv-x="512" d="M235 117 L320 203 L235 288 L213 267 L277 203 L213 139 L235 117 Z M213 405 L213 363 L299 363 L299 405 L213 405 Z M299 448 Q316 448 328.5 435.5 Q341 423 341 405 L341 363 L427 363 Q444 363 456.5 350 Q469 337 469 320 L469 85 Q469 68 456.5 55.5 Q444 43 427 43 L85 43 Q68 43 55.5 55.5 Q43 68 43 85 L43 320 Q43 337 55.5 350 Q68 363 85 363 L171 363 L171 405 Q171 422 183.5 435 Q196 448 213 448 L299 448 Z " />
<glyph glyph-name="uniE16B" unicode="&#xe16b;" horiz-adv-x="512" d="M384 405 Q401 405 414 392.5 Q427 380 427 363 L427 317 Q408 310 396 294 Q384 278 384 257 L384 213 L128 213 L128 257 Q128 278 116 294 Q104 310 85 317 L85 363 Q85 380 98 392.5 Q111 405 128 405 L384 405 Z M418 286 Q431 299 448 299 Q465 299 478 286 Q491 273 491 256 L491 149 Q491 132 478 119.5 Q465 107 448 107 L64 107 Q47 107 34 119.5 Q21 132 21 149 L21 256 Q21 273 34 286 Q47 299 64 299 Q81 299 94 286 Q107 273 107 256 L107 192 L405 192 L405 256 Q405 273 418 286 Z " />
<glyph glyph-name="uniE16C" unicode="&#xe16c;" horiz-adv-x="512" d="M299 405 L299 363 L43 363 L43 405 L107 405 L128 427 L213 427 L235 405 L299 405 Z M64 128 L64 341 L277 341 L277 128 Q277 111 264.5 98 Q252 85 235 85 L107 85 Q90 85 77 98 Q64 111 64 128 Z M320 256 L448 256 L448 213 L320 213 L320 256 Z M320 341 L469 341 L469 299 L320 299 L320 341 Z M320 171 L405 171 L405 128 L320 128 L320 171 Z " />
<glyph glyph-name="uniE16D" unicode="&#xe16d;" horiz-adv-x="512" d="M83.5 169 Q43 210 43 267 Q43 324 83.5 364.5 Q124 405 181 405 L256 405 L256 363 L181 363 Q141 363 113 335 Q85 307 85 267 Q85 227 113 199 Q141 171 181 171 L192 171 L192 213 L256 149 L192 85 L192 128 L181 128 Q124 128 83.5 169 Z M299 171 L469 171 L469 128 L299 128 L299 171 Z M299 288 L469 288 L469 245 L299 245 L299 288 Z M299 405 L469 405 L469 363 L299 363 L299 405 Z " />
<glyph glyph-name="uniE16E" unicode="&#xe16e;" horiz-adv-x="512" d="M384 213 L384 341 L277 341 L256 384 L149 384 L149 256 L277 256 L299 213 L384 213 Z M299 384 L427 384 L427 171 L277 171 L256 213 L149 213 L149 64 L107 64 L107 427 L277 427 L299 384 Z " />
<glyph glyph-name="uniE16F" unicode="&#xe16f;" horiz-adv-x="512" d="M43 421 L70 448 L427 91 L400 64 L314 149 L277 149 L277 186 L229 235 L171 235 L171 277 L186 277 L142 321 Q117 318 100 299.5 Q83 281 83 256 Q83 229 102.5 209.5 Q122 190 149 190 L235 190 L235 149 L149 149 Q105 149 74 180.5 Q43 212 43 256 Q43 286 62 315 Q81 344 109 355 L43 421 Z M341 277 L341 235 L337 235 L295 277 L341 277 Z M363 363 Q407 363 438 331.5 Q469 300 469 256 Q469 191 411 161 L380 192 Q401 197 415 215 Q429 233 429 256 Q429 283 409.5 302.5 Q390 322 363 322 L277 322 L277 363 L363 363 Z " />
<glyph glyph-name="uniE170" unicode="&#xe170;" horiz-adv-x="512" d="M236.5 151.5 Q245 143 256 143 Q267 143 275.5 151.5 Q284 160 284 171 Q284 182 275.5 190 Q267 198 256 198 Q245 198 236.5 190 Q228 182 228 171 Q228 160 236.5 151.5 Z M475 48 L448 21 L371 99 L336 64 L176 64 L64 176 L64 336 L99 371 L21 448 L48 475 L475 48 Z M235 363 L235 343 L153 425 L176 448 L336 448 L448 336 L448 176 L425 153 L277 300 L277 363 L235 363 Z " />
<glyph glyph-name="uniE171" unicode="&#xe171;" horiz-adv-x="512" d="M277 242 L333 297 L363 267 L256 160 L149 267 L179 297 L235 242 L235 448 L277 448 L277 242 Z M405 256 L448 256 L448 107 Q448 90 435 77 Q422 64 405 64 L107 64 Q90 64 77 77 Q64 90 64 107 L64 256 L107 256 L107 107 L405 107 L405 256 Z " />
<glyph glyph-name="uniE172" unicode="&#xe172;" horiz-adv-x="512" d="M149 213 L213 213 L213 149 L149 149 L149 213 Z M128 128 L235 128 L235 235 L128 235 L128 128 Z M149 363 L213 363 L213 299 L149 299 L149 363 Z M128 277 L235 277 L235 384 L128 384 L128 277 Z M405 64 L107 64 Q90 64 77 77 Q64 90 64 107 L64 405 Q64 422 77 435 Q90 448 107 448 L405 448 Q422 448 435 435 Q448 422 448 405 L448 107 Q448 90 435 77 Q422 64 405 64 Z M277 160 L384 160 L384 203 L277 203 L277 160 Z M277 309 L384 309 L384 352 L277 352 L277 309 Z " />
<glyph glyph-name="uniE173" unicode="&#xe173;" horiz-adv-x="512" d="M299 256 L416 256 L299 373 L299 256 Z M320 405 L448 277 L448 64 Q448 47 435 34 Q422 21 405 21 L170 21 Q153 21 140.5 34 Q128 47 128 64 L128 363 Q128 380 141 392.5 Q154 405 171 405 L320 405 Z M341 491 L341 448 L85 448 L85 149 L43 149 L43 448 Q43 465 55.5 478 Q68 491 85 491 L341 491 Z " />
<glyph glyph-name="uniE174" unicode="&#xe174;" horiz-adv-x="512" d="M330 75 L256 149 L286 179 L330 135 L439 245 L469 215 L330 75 Z M295 281 Q270 256 235 256 Q200 256 174.5 281 Q149 306 149 341 Q149 376 174.5 401.5 Q200 427 235 427 Q270 427 295 401.5 Q320 376 320 341 Q320 306 295 281 Z M192 149 L256 85 L64 85 L64 128 Q64 166 122.5 189.5 Q181 213 235 213 Q250 213 256 212 L192 149 Z " />
<glyph glyph-name="uniE175" unicode="&#xe175;" horiz-adv-x="512" d="M272 463 Q278 469 287 469 Q298 469 302 463 L408 357 Q414 351 414 342 Q414 333 408 327 L272 192 Q266 186 257 186 Q248 186 242 192 L136 297 Q130 303 130 312 Q130 321 136 327 L272 463 Z M363 342 L287 418 L182 312 L257 237 L363 342 Z M384 235 L448 171 L448 85 Q448 67 435.5 55 Q423 43 405 43 L106 43 Q89 43 76.5 55.5 Q64 68 64 85 L64 171 L128 235 L146 235 L188 192 L145 192 L107 149 L405 149 L368 192 L327 192 L369 235 L384 235 Z " />
<glyph glyph-name="uniE176" unicode="&#xe176;" horiz-adv-x="512" d="M300 322 Q334 339 363 339 Q392 339 426 322 Q450 310 469 310 L469 268 Q440 268 406 285 Q380 298 363 298 Q345 298 319 285 Q285 268 256 268 Q227 268 193 285 Q167 298 149 298 Q132 298 106 285 Q72 268 43 268 L43 310 Q62 310 86 322 Q120 339 149 339 Q178 339 212 322 Q236 310 256 310 Q276 310 300 322 Z M426 417 Q452 404 469 404 L469 363 Q440 363 406 380 Q380 393 363 393 Q345 393 319 380 Q285 363 256 363 Q227 363 193 380 Q167 393 149 393 Q132 393 106 380 Q72 363 43 363 L43 404 Q60 404 86 417 Q120 434 149 434 Q178 434 212 417 Q238 404 256 404 Q274 404 300 417 Q334 434 363 434 Q392 434 426 417 Z M300 227 Q334 244 363 244 Q392 244 426 227 Q450 215 469 215 L469 173 Q440 173 406 190 Q380 203 363 203 Q345 203 319 190 Q285 173 256 173 Q227 173 193 190 Q167 203 149 203 Q132 203 106 190 Q72 173 43 173 L43 215 Q62 215 86 227 Q120 244 149 244 Q178 244 212 227 Q236 215 256 215 Q276 215 300 227 Z M300 132 Q336 150 363 150 Q390 150 426 132 Q450 120 469 120 L469 78 Q440 78 406 95 Q380 108 363 108 Q345 108 319 95 Q285 78 256 78 Q227 78 193 95 Q167 108 149 108 Q132 108 106 95 Q72 78 43 78 L43 120 Q62 120 86 132 Q122 150 149 150 Q176 150 212 132 Q236 120 256 120 Q276 120 300 132 Z " />
<glyph glyph-name="uniE177" unicode="&#xe177;" horiz-adv-x="512" d="M223 213 L363 354 L333 384 L223 273 L179 318 L149 288 L223 213 Z M150.5 425.5 Q194 469 256 469 Q318 469 361.5 425.5 Q405 382 405 320 Q405 289 389.5 249 Q374 209 352 174 Q330 139 308.5 108.5 Q287 78 272 60 L256 43 Q250 50 240 61.5 Q230 73 204 107.5 Q178 142 158.5 174.5 Q139 207 123 248 Q107 289 107 320 Q107 382 150.5 425.5 Z " />
<glyph glyph-name="uniE178" unicode="&#xe178;" horiz-adv-x="512" d="M405 256 L405 192 L469 192 L469 149 L405 149 L405 85 L363 85 L363 149 L299 149 L299 192 L363 192 L363 256 L405 256 Z M102.5 302.5 Q83 283 83 256 Q83 229 102.5 209.5 Q122 190 149 190 L235 190 L235 149 L149 149 Q105 149 74 180.5 Q43 212 43 256 Q43 300 74 331.5 Q105 363 149 363 L235 363 L235 322 L149 322 Q122 322 102.5 302.5 Z M429 256 Q429 283 409.5 302.5 Q390 322 363 322 L277 322 L277 363 L363 363 Q407 363 438 331.5 Q469 300 469 256 L429 256 Z M171 277 L341 277 L341 235 L171 235 L171 277 Z " />
<glyph glyph-name="uniE179" unicode="&#xe179;" horiz-adv-x="512" d="M427 363 L427 427 L85 427 L85 363 L427 363 Z M320 213 L320 256 L192 256 L192 213 L320 213 Z M427 469 Q443 469 456 456.5 Q469 444 469 427 L469 362 Q469 338 448 326 L448 85 Q448 68 434 55.5 Q420 43 405 43 L107 43 Q92 43 78 55.5 Q64 68 64 85 L64 326 Q43 338 43 362 L43 427 Q43 444 56 456.5 Q69 469 85 469 L427 469 Z " />
<glyph glyph-name="uniE190" unicode="&#xe190;" horiz-adv-x="512" d="M150.5 129 Q194 85 256 85 Q318 85 361.5 129 Q405 173 405 235 Q405 297 361.5 340.5 Q318 384 256 384 Q194 384 150.5 340.5 Q107 297 107 235 Q107 173 150.5 129 Z M120 370.5 Q176 427 256 427 Q336 427 392 370.5 Q448 314 448 235 Q448 156 392 99.5 Q336 43 256 43 Q176 43 120 99.5 Q64 156 64 235 Q64 314 120 370.5 Z M267 341 L267 229 L352 179 L336 153 L235 213 L235 341 L267 341 Z M168 440 L70 358 L43 390 L141 472 L168 440 Z M469 390 L442 357 L344 440 L371 472 L469 390 Z " />
<glyph glyph-name="uniE191" unicode="&#xe191;" horiz-adv-x="512" d="M150.5 129 Q194 85 256 85 Q318 85 361.5 129 Q405 173 405 235 Q405 297 361.5 340.5 Q318 384 256 384 Q194 384 150.5 340.5 Q107 297 107 235 Q107 173 150.5 129 Z M120 371 Q176 427 256 427 Q336 427 392 371 Q448 315 448 235 Q448 155 392 99 Q336 43 256 43 Q176 43 120 99 Q64 155 64 235 Q64 315 120 371 Z M267 341 L267 228 L352 177 L335 151 L235 213 L235 341 L267 341 Z M169 439 L70 358 L43 390 L141 471 L169 439 Z M469 390 L442 358 L343 442 L371 474 L469 390 Z " />
<glyph glyph-name="uniE192" unicode="&#xe192;" horiz-adv-x="512" d="M267 363 L267 251 L363 194 L347 167 L235 235 L235 363 L267 363 Z M135.5 135.5 Q186 85 256 85 Q326 85 376.5 135.5 Q427 186 427 256 Q427 326 376.5 376.5 Q326 427 256 427 Q186 427 135.5 376.5 Q85 326 85 256 Q85 186 135.5 135.5 Z M105.5 406.5 Q168 469 256 469 Q344 469 406.5 406.5 Q469 344 469 256 Q469 168 406.5 105.5 Q344 43 256 43 Q168 43 105.5 105.5 Q43 168 43 256 Q43 344 105.5 406.5 Z " />
<glyph glyph-name="uniE193" unicode="&#xe193;" horiz-adv-x="512" d="M277 320 L277 256 L341 256 L341 213 L277 213 L277 149 L235 149 L235 213 L171 213 L171 256 L235 256 L235 320 L277 320 Z M150.5 129 Q194 85 256 85 Q318 85 361.5 129 Q405 173 405 235 Q405 297 361.5 340.5 Q318 384 256 384 Q194 384 150.5 340.5 Q107 297 107 235 Q107 173 150.5 129 Z M120 370.5 Q176 427 256 427 Q336 427 392 370.5 Q448 314 448 235 Q448 156 392 99.5 Q336 43 256 43 Q176 43 120 99.5 Q64 156 64 235 Q64 314 120 370.5 Z M469 390 L442 357 L344 440 L371 472 L469 390 Z M168 440 L70 358 L43 390 L141 472 L168 440 Z " />
<glyph glyph-name="uniE194" unicode="&#xe194;" horiz-adv-x="512" d="M64 400 L91 427 L427 91 L400 64 L277 186 L277 107 L320 75 L320 43 L245 64 L171 43 L171 75 L213 107 L213 224 L43 171 L43 213 L170 293 L64 400 Z M277 320 L448 213 L448 171 L380 192 L213 359 L213 437 Q213 450 222.5 459.5 Q232 469 245 469 Q258 469 267.5 459.5 Q277 450 277 437 L277 320 Z " />
<glyph glyph-name="uniE195" unicode="&#xe195;" horiz-adv-x="512" d="M448 171 L277 224 L277 107 L320 75 L320 43 L245 64 L171 43 L171 75 L213 107 L213 224 L43 171 L43 213 L213 320 L213 437 Q213 450 222.5 459.5 Q232 469 245 469 Q258 469 267.5 459.5 Q277 450 277 437 L277 320 L448 213 L448 171 Z " />
<glyph glyph-name="uniE19C" unicode="&#xe19c;" horiz-adv-x="512" d="M277 213 L277 320 L235 320 L235 213 L277 213 Z M277 128 L277 171 L235 171 L235 128 L277 128 Z M334 427 Q346 427 354.5 418.5 Q363 410 363 398 L363 71 Q363 59 354.5 51 Q346 43 334 43 L178 43 Q166 43 157.5 51 Q149 59 149 71 L149 398 Q149 410 157.5 418.5 Q166 427 178 427 L213 427 L213 469 L299 469 L299 427 L334 427 Z " />
<glyph glyph-name="uniE1A3" unicode="&#xe1a3;" horiz-adv-x="512" d="M235 85 L320 245 L277 245 L277 363 L192 203 L235 203 L235 85 Z M334 427 Q346 427 354.5 418.5 Q363 410 363 398 L363 71 Q363 59 354.5 51 Q346 43 334 43 L178 43 Q166 43 157.5 51 Q149 59 149 71 L149 398 Q149 410 157.5 418.5 Q166 427 178 427 L213 427 L213 469 L299 469 L299 427 L334 427 Z " />
<glyph glyph-name="uniE1A4" unicode="&#xe1a4;" horiz-adv-x="512" d="M334 427 Q346 427 354.5 418.5 Q363 410 363 398 L363 71 Q363 59 354.5 51 Q346 43 334 43 L178 43 Q166 43 157.5 51 Q149 59 149 71 L149 398 Q149 410 157.5 418.5 Q166 427 178 427 L213 427 L213 469 L299 469 L299 427 L334 427 Z " />
<glyph glyph-name="uniE1A5" unicode="&#xe1a5;" horiz-adv-x="512" d="M334 427 Q346 427 354.5 418.5 Q363 410 363 398 L363 71 Q363 59 354.5 51 Q346 43 334 43 L178 43 Q166 43 157.5 51 Q149 59 149 71 L149 398 Q149 410 157.5 418.5 Q166 427 178 427 L213 427 L213 469 L299 469 L299 427 L334 427 Z " />
<glyph glyph-name="uniE1A6" unicode="&#xe1a6;" horiz-adv-x="512" d="M305 241 Q320 256 320 277 Q320 303 301 322 Q282 341 256 341 Q230 341 211 322 Q192 303 192 277 L224 277 Q224 290 233 299.5 Q242 309 256 309 Q270 309 279 299.5 Q288 290 288 277 Q288 264 279 255 L259 235 Q239 215 239 192 L273 192 Q273 208 291 226 L305 241 Z M276 129 L276 170 L236 170 L236 129 L276 129 Z M334 427 Q346 427 354.5 418.5 Q363 410 363 398 L363 71 Q363 59 354.5 51 Q346 43 334 43 L178 43 Q166 43 157.5 51 Q149 59 149 71 L149 398 Q149 410 157.5 418.5 Q166 427 178 427 L213 427 L213 469 L299 469 L299 427 L334 427 Z " />
<glyph glyph-name="uniE1A7" unicode="&#xe1a7;" horiz-adv-x="512" d="M317 164 L277 205 L277 124 L317 164 Z M277 388 L277 307 L317 348 L277 388 Z M378 348 L286 256 L378 164 L256 43 L235 43 L235 205 L137 107 L107 137 L226 256 L107 375 L137 405 L235 307 L235 469 L256 469 L378 348 Z " />
<glyph glyph-name="uniE1A8" unicode="&#xe1a8;" horiz-adv-x="512" d="M405 299 L448 256 L405 213 L363 256 L405 299 Z M317 164 L277 205 L277 124 L317 164 Z M277 388 L277 307 L317 348 L277 388 Z M378 348 L286 256 L378 164 L256 43 L235 43 L235 205 L137 107 L107 137 L226 256 L107 375 L137 405 L235 307 L235 469 L256 469 L378 348 Z M149 256 L107 213 L64 256 L107 299 L149 256 Z " />
<glyph glyph-name="uniE1A9" unicode="&#xe1a9;" horiz-adv-x="512" d="M277 124 L317 164 L277 205 L277 124 Z M115 427 L427 115 L397 85 L348 134 L256 43 L235 43 L235 205 L137 107 L107 137 L226 256 L85 397 L115 427 Z M277 388 L277 319 L235 362 L235 469 L256 469 L378 348 L313 283 L283 313 L317 348 L277 388 Z " />
<glyph glyph-name="uniE1AA" unicode="&#xe1aa;" horiz-adv-x="512" d="M275 164 L235 205 L235 124 L275 164 Z M235 388 L235 307 L275 348 L235 388 Z M335 348 L243 256 L335 164 L213 43 L192 43 L192 205 L94 107 L64 137 L183 256 L64 375 L94 405 L192 307 L192 469 L213 469 L335 348 Z M417 369 Q448 319 448 258 Q448 198 415 145 L390 170 Q411 212 411 256 Q411 300 390 342 L417 369 Z M304 256 L353 305 Q363 280 363 256 Q363 231 353 206 L304 256 Z " />
<glyph glyph-name="uniE1AB" unicode="&#xe1ab;" horiz-adv-x="512" d="M305 171 L346 171 L277 363 L235 363 L166 171 L207 171 L222 213 L290 213 L305 171 Z M427 327 L497 256 L427 185 L427 85 L327 85 L256 15 L185 85 L85 85 L85 185 L15 256 L85 327 L85 427 L185 427 L256 497 L327 427 L427 427 L427 327 Z M231 242 L256 320 L281 242 L231 242 Z " />
<glyph glyph-name="uniE1AC" unicode="&#xe1ac;" horiz-adv-x="512" d="M196 316 Q221 341 256 341 Q291 341 316 316 Q341 291 341 256 Q341 221 316 196 Q291 171 256 171 Q221 171 196 196 Q171 221 171 256 Q171 291 196 316 Z M165.5 165.5 Q203 128 256 128 Q309 128 346.5 165.5 Q384 203 384 256 Q384 309 346.5 346.5 Q309 384 256 384 Q203 384 165.5 346.5 Q128 309 128 256 Q128 203 165.5 165.5 Z M427 327 L497 256 L427 185 L427 85 L327 85 L256 15 L185 85 L85 85 L85 185 L15 256 L85 327 L85 427 L185 427 L256 497 L327 427 L427 427 L427 327 Z " />
<glyph glyph-name="uniE1AD" unicode="&#xe1ad;" horiz-adv-x="512" d="M165.5 165.5 Q203 128 256 128 Q309 128 346.5 165.5 Q384 203 384 256 Q384 309 346.5 346.5 Q309 384 256 384 Q203 384 165.5 346.5 Q128 309 128 256 Q128 203 165.5 165.5 Z M427 185 L427 85 L327 85 L256 15 L185 85 L85 85 L85 185 L15 256 L85 327 L85 427 L185 427 L256 497 L327 427 L427 427 L427 327 L497 256 L427 185 Z " />
<glyph glyph-name="uniE1AE" unicode="&#xe1ae;" horiz-adv-x="512" d="M256 128 Q309 128 346.5 165.5 Q384 203 384 256 Q384 309 346.5 346.5 Q309 384 256 384 L256 128 Z M427 185 L427 85 L327 85 L256 15 L185 85 L85 85 L85 185 L15 256 L85 327 L85 427 L185 427 L256 497 L327 427 L427 427 L427 327 L497 256 L427 185 Z " />
<glyph glyph-name="uniE1AF" unicode="&#xe1af;" horiz-adv-x="512" d="M256 107 Q285 107 319 123.5 Q353 140 372 163 L428 130 Q364 43 256 43 Q168 43 105.5 105.5 Q43 168 43 256 Q43 339 98.5 399.5 Q154 460 235 468 L235 404 Q181 396 144 354 Q107 312 107 256 Q107 194 150.5 150.5 Q194 107 256 107 Z M277 468 Q358 460 413.5 399.5 Q469 339 469 256 Q469 208 451 169 L395 202 Q405 230 405 256 Q405 312 368 354 Q331 396 277 404 L277 468 Z " />
<glyph glyph-name="uniE1B0" unicode="&#xe1b0;" horiz-adv-x="512" d="M363 107 L363 149 L405 149 L405 64 Q405 47 392.5 34 Q380 21 363 21 L149 21 Q132 21 119.5 34 Q107 47 107 64 L107 149 L149 149 L149 107 L363 107 Z M213 188 L183 158 L85 256 L183 354 L213 324 L146 256 L213 188 Z M329 158 L299 188 L366 256 L299 324 L329 354 L427 256 L329 158 Z M149 405 L149 363 L107 363 L107 448 Q107 465 119.5 478 Q132 491 149 491 L363 490 Q380 490 392.5 477.5 Q405 465 405 448 L405 363 L363 363 L363 405 L149 405 Z " />
<glyph glyph-name="uniE1B1" unicode="&#xe1b1;" horiz-adv-x="512" d="M469 149 L469 299 L384 299 L384 149 L469 149 Z M491 341 Q500 341 506 335 Q512 329 512 320 L512 107 Q512 98 506 91.5 Q500 85 491 85 L363 85 Q354 85 347.5 91.5 Q341 98 341 107 L341 320 Q341 329 347.5 335 Q354 341 363 341 L491 341 Z M85 384 L85 149 L299 149 L299 85 L0 85 L0 149 L43 149 L43 384 Q43 401 55.5 414 Q68 427 85 427 L469 427 L469 384 L85 384 Z " />
</font>
</svg>
